<?xml version="1.0" standalone="no"?>
<!DOCTYPE svg PUBLIC "-//W3C//DTD SVG 1.1//EN" "http://www.w3.org/Graphics/SVG/1.1/DTD/svg11.dtd" >
<svg xmlns="http://www.w3.org/2000/svg">
<metadata>
Created by FontForge 20120731 at Mon Nov 21 12:09:56 2016
 By admin
</metadata>
<defs>
<font id="iconfont" horiz-adv-x="1024" >
  <font-face 
    font-family="iconfont"
    font-weight="500"
    font-stretch="normal"
    units-per-em="1024"
    panose-1="2 0 6 3 0 0 0 0 0 0"
    ascent="896"
    descent="-128"
    x-height="792"
    bbox="-0.5 -224 1024 896"
    underline-thickness="0"
    underline-position="0"
    unicode-range="U+0078-E6F3"
  />
<missing-glyph 
 />
    <glyph glyph-name=".notdef" 
 />
    <glyph glyph-name=".notdef" 
 />
    <glyph glyph-name=".null" horiz-adv-x="0" 
 />
    <glyph glyph-name="nonmarkingreturn" horiz-adv-x="341" 
 />
    <glyph glyph-name="x" unicode="x" horiz-adv-x="1001" 
d="M281 543q-27 -1 -53 -1h-83q-18 0 -36.5 -6t-32.5 -18.5t-23 -32t-9 -45.5v-76h912v41q0 16 -0.5 30t-0.5 18q0 13 -5 29t-17 29.5t-31.5 22.5t-49.5 9h-133v-97h-438v97zM955 310v-52q0 -23 0.5 -52t0.5 -58t-10.5 -47.5t-26 -30t-33 -16t-31.5 -4.5q-14 -1 -29.5 -0.5
t-29.5 0.5h-32l-45 128h-439l-44 -128h-29h-34q-20 0 -45 1q-25 0 -41 9.5t-25.5 23t-13.5 29.5t-4 30v167h911zM163 247q-12 0 -21 -8.5t-9 -21.5t9 -21.5t21 -8.5q13 0 22 8.5t9 21.5t-9 21.5t-22 8.5zM316 123q-8 -26 -14 -48q-5 -19 -10.5 -37t-7.5 -25t-3 -15t1 -14.5
t9.5 -10.5t21.5 -4h37h67h81h80h64h36q23 0 34 12t2 38q-5 13 -9.5 30.5t-9.5 34.5q-5 19 -11 39h-368zM336 498v228q0 11 2.5 23t10 21.5t20.5 15.5t34 6h188q31 0 51.5 -14.5t20.5 -52.5v-227h-327z" />
    <glyph glyph-name="bofang" unicode="&#xe604;" 
d="M508 672q-101 0 -187 -50t-136 -136t-50 -187.5t50 -187.5t136 -136t187 -50t187 50t136 136t50 187.5t-50 187.5t-136 136t-187 50zM508 -7q-127 0 -216 89.5t-89 216t89 216t216 89.5t216 -89.5t89 -216t-89 -216t-216 -89.5zM406 146l289 170l-289 135v-305z" />
    <glyph glyph-name="tuichudenglu" unicode="&#xe600;" 
d="M759 632q43 -31 76.5 -70t57.5 -85t37 -96q12 -51 12 -103q0 -90 -34 -169t-92 -137.5t-136.5 -93t-167.5 -34.5t-167 34.5t-136.5 93t-92.5 137.5t-34 169q0 51 12 100q12 50 34 94t55 83t73 70q21 16 45.5 12t40 -24.5t11.5 -45.5t-24 -41q-60 -44 -92.5 -109
t-32.5 -139q0 -64 24 -121t66 -99t98 -66q56 -25 119.5 -25t119.5 25q57 24 98.5 66.5t66 99t24.5 120.5q0 75 -34.5 142.5t-96.5 110.5q-21 15 -25.5 40t9.5 46q15 21 40 25t46 -10v0zM512 275q-25 0 -43 18t-18 43v367q0 26 18 44t43 18q26 0 43.5 -18t17.5 -44v-367
q0 -25 -17.5 -43t-43.5 -18v0z" />
    <glyph glyph-name="xiaoquanquan" unicode="&#xe601;" 
d="M512.5 586q-105.5 0 -180.5 -74.5t-75 -180t75 -180.5t180.5 -75t180 75t74.5 180.5t-74.5 180t-180 74.5zM512.5 125q-85.5 0 -146 60.5t-60.5 146t60.5 145.5t146 60t145.5 -60t60 -145.5t-60 -146t-145.5 -60.5z" />
    <glyph glyph-name="tijiaodingdan" unicode="&#xe64e;" 
d="M455 62v-12q-1 -5 -1 -12q0 -38 12 -72q10 -34 31 -63h-248q-17 0 -36 9q-18 9 -35 25q-17 15 -28 34.5t-11 40.5v522q0 17 8 36q9 19 23 35q13 16 31 26.5t38 10.5h60v-105h372v105h52q20 0 39 -8q19 -9 34 -23q16 -14 25 -34q10 -21 10 -43v-299q-29 19 -63.5 30
t-72.5 11h-6q16 6 25.5 20t9.5 30q0 22 -16 37q-15 15 -37 15h-372q-22 0 -38 -15t-16 -37t16 -37q16 -16 38 -16h356q-51 -9 -93 -36q-41 -27 -68 -69h-195q-22 0 -38 -15.5t-16 -37.5t16 -37q16 -16 38 -16h156v0zM814 53q5 6 10 14q4 9 -3 16l-8 8q-6 7 -8 8
q-9 5 -16.5 1t-15.5 -12q-20 -19 -38 -38q-20 -19 -36 -35q-6 -6 -14 -7q-7 -1 -11 5l-8 8q-6 6 -12 13l-11 13q-7 7 -8 9q-5 4 -11.5 5t-13.5 -5l-4 -3q-3 -3 -6.5 -7t-7.5 -7l-4 -4q-13 -13 3 -31q5 -5 14 -15q9 -9 18 -19q13 -14 19 -19q9 -11 16 -16q6 -7 18 -6.5
t18 7.5q13 11 28 27l31 31q17 16 33 32t28 27zM699 222q38 0 72 -14.5t59 -39.5q26 -26 41 -59.5t15 -71.5q0 -39 -15 -72q-15 -34 -41 -59q-25 -26 -59 -40t-72 -14q-40 0 -74 14t-59 40q-26 25 -40 59q-15 33 -15 72q0 38 15 72t40 59t59 39.5t74 14.5zM485 637
q14 0 23.5 10t9.5 23q0 15 -9.5 24t-23.5 9t-23.5 -9.5t-9.5 -23.5q0 -13 9.5 -23t23.5 -10zM618 590h-266v105h53q0 22 15.5 37.5t37.5 15.5h53q23 0 38 -15.5t15 -37.5h54v-105z" />
    <glyph glyph-name="erweima" unicode="&#xe649;" 
d="M152 688h305q9 0 14.5 -6t7.5 -18.5t2.5 -20.5t0 -25.5t-0.5 -22.5v-169q0 -6 0.5 -21.5t0 -24t-1.5 -19.5t-5.5 -17.5t-11.5 -9.5t-21 -3.5t-33.5 0.5t-23.5 1h-162q-6 0 -23 -0.5t-25.5 -0.5t-20.5 2t-18 7.5t-7 15.5v309q6 18 23 23zM194 619v-220h220v223h-219
q-1 0 -1 -3zM562 688h305q20 -7 23 -27v-301q-5 -22 -21 -27q-9 -2 -22 -2.5t-30.5 0.5t-24.5 1h-157q-7 0 -24.5 -1t-31 -1t-21.5 3t-12.5 9.5t-6.5 19t-2 21.5t0.5 25.5t0.5 22.5v158q0 8 -0.5 25.5t-0.5 27t2 21.5t7.5 18t15.5 7zM604 619v-220h220v223h-219q-2 0 -1 -3z
M294 554q23 5 39 -8t17 -35q0 -27 -22 -40t-45 -2q-16 9 -21.5 28t3.5 36.5t29 20.5zM704 554q39 8 51 -26q10 -30 -10 -51q-16 -16 -41 -12q-22 4 -30.5 24t0 40.5t30.5 24.5zM455 -84h-302q-19 6 -24 25v308q6 19 20 23q9 2 22 2.5t30.5 -0.5t24.5 -1h156q7 0 24.5 1
t31 0.5t22.5 -2.5q8 -3 13 -9.5t6.5 -18.5t2 -21t0 -25.5t-0.5 -23.5v-162q0 -6 0.5 -24.5t0 -26.5t-2.5 -20t-8 -18t-16 -7zM194 203v-220h220v223h-219q-1 0 -1 -3zM890 245v-86q-1 -7 -0.5 -46t-0.5 -47h-218v50q-5 2 -33 1.5t-34 -0.5q-2 -17 -1.5 -99.5t0.5 -101.5h-40
q-10 2 -16 8.5t-8 18.5t-2 21.5t0.5 27t0.5 24.5v158q0 7 -1 25.5t-0.5 32t2.5 21.5q2 5 4.5 8.5t7 5.5t8 3.5t11 2t11.5 0.5h13.5h12.5h148v-136h69q0 12 -0.5 68.5t1.5 67.5q17 0 31 -0.5t23.5 -7t10.5 -20.5zM300 140q25 2 40.5 -17.5t6.5 -45.5q-9 -23 -33.5 -27
t-42.5 12.5t-10.5 45t39.5 32.5zM745 -84h-74v41t1 39h73v-80zM890 -4v-52q-4 -21 -24 -28h-52q0 8 -0.5 41t1.5 39h75z" />
    <glyph glyph-name="gantanquan" unicode="&#xe602;" 
d="M493 487h69v-259h-69v259zM527.5 179q-17.5 0 -30 -12.5t-12.5 -30t12.5 -30t30 -12.5t30 12.5t12.5 30t-12.5 30t-30 12.5zM626 573q-27 11 -57 16t-68.5 3.5t-83 -19.5t-88.5 -52q-104 -83 -100 -225v0q13 -210 159 -272q72 -31 144 -30v0q39 0 90 14.5t94 47.5
q46 37 75 97.5t29 140.5q0 63 -17.5 113.5t-48 82.5t-61 51t-67.5 32zM518 58q-158 8 -211 144q-50 171 64 269q81 70 180 60q56 -10 97.5 -34.5t64.5 -56.5t34 -65t11 -67q0 -19 -1 -36.5t-6 -45t-14.5 -49.5t-27.5 -46t-42.5 -40t-63 -25.5t-85.5 -7.5z" />
    <glyph glyph-name="shanchu" unicode="&#xe605;" 
d="M387 59v393q0 7 -5 12.5t-12.5 5.5t-13 -5.5t-5.5 -12.5v-393q0 -7 5.5 -12t13 -5t12.5 5t5 12zM530 59v393q0 7 -5.5 12.5t-12.5 5.5t-12.5 -5.5t-5.5 -12.5v-393q0 -7 5.5 -12t12.5 -5t12.5 5t5.5 12zM815.5 488q-7.5 0 -12.5 -5.5t-5 -12.5v-482q0 -15 -10.5 -25.5
t-25.5 -10.5h-500q-15 0 -25.5 10.5t-10.5 25.5v482q0 7 -5 12.5t-13 5.5q-13 0 -17 -14v0.5v0.5v-487q0 -30 20.5 -50.5t50.5 -20.5h500q29 0 50 20.5t21 50.5v482q0 7 -5 12.5t-12.5 5.5zM869 613h-206l-65 66q-6 5 -14 5h-1h-142h-1q-8 0 -14 -5l-65 -66h-206
q-7 0 -12.5 -5.5t-5.5 -13t5.5 -12.5t12.5 -5h214h0.5h0.5q8 0 14 6l66 65h124l66 -65q6 -6 14 -6h0.5h0.5h214q7 0 12.5 5t5.5 12.5t-5.5 13t-12.5 5.5zM673 59v393q0 7 -5.5 12.5t-13 5.5t-12.5 -5.5t-5 -12.5v-393q0 -7 5 -12t12.5 -5t13 5t5.5 12z" />
    <glyph glyph-name="shezhi" unicode="&#xe603;" 
d="M512 115q-76 0 -130 54t-54 130.5t54 130.5t130 54t130 -54t54 -130.5t-54 -130.5t-130 -54zM512 423q-51 0 -87.5 -36t-36.5 -87.5t36.5 -87.5t87.5 -36t87.5 36t36.5 87.5t-36.5 87.5t-87.5 36zM582 686v-41q0 -22 12 -40.5t33 -27.5q13 -5 28 -5q30 0 52 21l26 26
l98 -98l-26 -26q-15 -16 -19.5 -38t4 -42.5t27 -33t40.5 -12.5h40v-139h-40q-22 0 -40.5 -12.5t-27 -33t-4 -42.5t19.5 -38l26 -26l-98 -99l-26 26q-22 22 -52 22q-15 0 -28 -6q-21 -8 -33 -26.5t-12 -41.5v-39h-140v39q0 23 -12 41.5t-33 26.5q-13 6 -28 6q-30 0 -52 -22
l-26 -26l-98 99l26 26q15 16 19.5 38t-4 42.5t-27 33t-40.5 12.5h-40v139h40q22 0 40.5 12.5t27 33t4 42.5t-19.5 38l-26 26l98 98l26 -26q22 -21 52 -21q15 0 28 5q21 9 33 27.5t12 40.5v41h140zM582 747h-140q-24 0 -42 -19.5t-18 -45.5v-37q0 -8 -8 -11q-3 -1 -5 -1
q-5 0 -9 3l-26 26q-18 18 -43 18t-43 -18l-98 -98q-18 -18 -18 -43.5t18 -42.5l26 -26q6 -6 2.5 -14t-11.5 -8h-37q-25 0 -44 -18t-19 -43v-139q0 -25 19 -43t44 -18h37q8 0 11.5 -8t-2.5 -14l-26 -26q-18 -18 -18 -43t18 -43l98 -99q18 -17 43 -17t43 17l26 26q4 4 9 4
q2 0 5 -1q8 -3 8 -12v-36q0 -26 18 -45t42 -19h140q24 0 42 19t18 45v36q0 9 8 12q3 1 5 1q5 0 9 -4l26 -26q18 -17 43 -17t43 17l98 99q18 18 18 43t-18 43l-26 26q-6 6 -2.5 14t11.5 8h37q25 0 44 18t19 43v139q0 25 -19 43t-44 18h-37q-8 0 -11.5 8t2.5 14l26 26
q18 17 18 42.5t-18 43.5l-98 98q-18 18 -43 18t-43 -18l-26 -26q-4 -3 -9 -3q-2 0 -5 1q-8 3 -8 11v37q0 26 -18 45.5t-42 19.5v0z" />
    <glyph glyph-name="jiantou" unicode="&#xe606;" 
d="M944 522.5q11 -13.5 11.5 -28.5t-8.5 -23l-417 -325q-2 -1 -7.5 -5t-6.5 -5q-12 -13 -26.5 -16t-23.5 5l-393 354q-9 8 -7 23t13.5 28t26 16.5t23.5 -5.5l358 -322l408 318q10 8 24 3.5t25 -18z" />
    <glyph glyph-name="shezhi1" unicode="&#xe607;" 
d="M644 -105v0q-25 0 -41 18q-16 17 -42.5 35t-48.5 18q-23 0 -49.5 -18t-41.5 -34q-16 -18 -41 -18q-11 0 -21 5h-1l-107 60l-1 1q-14 10 -19 27.5t2 33.5q10 23 10 43q0 47 -33 80t-80 33h-4v0q-14 0 -24 11t-13 30q-10 48 -10 85t10 85q3 19 13.5 30t23.5 10h4
q47 0 80 33.5t33 79.5q0 21 -10 44q-7 16 -2 33.5t19 27.5l2 1l112 62h1q10 4 21 4q25 0 41 -16q15 -17 41 -34t48 -17t47.5 17t41.5 33t40 16q12 0 21 -4l2 -1l108 -60l1 -1q15 -10 20 -27.5t-2 -33.5q-10 -23 -10 -44q0 -46 33 -79.5t80 -33.5h3q14 1 24.5 -10t13.5 -30
q9 -48 9 -85t-9 -85q-3 -19 -13.5 -30t-24.5 -11h-3q-47 0 -80 -33t-33 -80q0 -20 10 -43q7 -16 2 -33.5t-20 -27.5l-1 -1l-110 -61l-1 -1q-10 -4 -21 -4zM641 -53q1 -1 3 -1v0l103 57q-13 33 -13 63q0 66 45 113.5t110 50.5q8 45 8 75t-8 75q-65 3 -110 50.5t-45 112.5
q0 31 13 64l-101 56h-1q-2 0 -3 -1q-16 -16 -38 -32q-47 -33 -88 -33t-89 34q-22 16 -37 32q-2 1 -4 1h-1l-105 -57q14 -33 14 -64q0 -65 -45 -112.5t-110 -50.5q-8 -45 -8 -75t8 -75q65 -3 110 -50.5t45 -113.5q0 -30 -14 -63l100 -55v0h3q16 18 38 34q49 35 91 35t90 -36
q23 -16 39 -34zM512 155q-62 0 -106 44t-44 106.5t44 106.5t106 44t106 -44t44 -106.5t-44 -106.5t-106 -44zM512 405q-41 0 -70 -29t-29 -70.5t29 -70.5t70 -29t70 29t29 70.5t-29 70.5t-70 29z" />
    <glyph glyph-name="shouye" unicode="&#xe608;" 
d="M806 666h66v-180l-66 49v131zM962 257l-90 72v-467h-263v65v134h-197v-134v-65h-264v469l-89 -74l-42 50l485 408l502 -408zM806 382l-303 243l-289 -239v-459h132v134v65h66h197h66v-199h131v455z" />
    <glyph glyph-name="cuowu" unicode="&#xe60a;" 
d="M512 -180q98 0 186.5 38t153 102.5t102.5 153t38 186.5t-38 186.5t-102.5 153t-153 102.5t-186.5 38t-186.5 -38t-153 -102.5t-102.5 -153t-38 -186.5t38 -186.5t102.5 -153t153 -102.5t186.5 -38zM513.5 663q98.5 0 181.5 -48.5t131.5 -132t48.5 -181.5t-48.5 -181.5
t-131.5 -131.5t-181.5 -48t-181.5 48t-131.5 131.5t-48.5 181.5t48.5 181.5t131.5 132t181.5 48.5zM336 183l57 -57q4 -5 11 -5t12 4l97 96l94 -96q5 -4 12 -3.5t12 4.5l56 56q11 13 -1 24l-94 94l94 92q12 11 1 23l-57 57q-11 12 -23 1l-95 -93l-94 95q-12 11 -23 -1
l-56 -56q-5 -5 -4.5 -12t5.5 -11l93 -94l-96 -95q-6 -4 -6 -11t5 -12z" />
    <glyph glyph-name="bofang1" unicode="&#xe609;" 
d="M513 803q-103 0 -196 -40t-160.5 -107t-107 -160.5t-39.5 -195.5t39.5 -195.5t107 -160.5t160.5 -107t195.5 -40t195.5 40t160.5 107t107 160.5t39.5 195.5t-39.5 195.5t-107 160.5t-160.5 107t-195 40v0zM513 -131q-117 0 -216.5 57.5t-157 157t-57.5 216.5t57.5 216.5
t157 157t216 57.5t216 -57.5t157.5 -157t58 -216.5t-58 -216.5t-157.5 -157t-215.5 -57.5v0zM421 69q-5 0 -8 2q-10 5 -10 16v410q0 11 9.5 16t18.5 -1l287 -200q8 -5 8 -14.5t-7 -14.5l-288 -211q-4 -3 -10 -3z" />
    <glyph glyph-name="zuopinyulan" unicode="&#xe60b;" 
d="M512 620q-52 0 -105 -17.5t-96 -45.5t-82.5 -62.5t-69 -68.5t-51.5 -62.5t-33 -46l-11 -17.5q4 -7 11.5 -18.5t32.5 -44.5t52 -63.5t68.5 -67.5t83 -63.5t95 -44.5t105.5 -18t105 17.5t96 45.5t82.5 62.5t69 68.5t51.5 62.5t33 46l11 17.5q-4 7 -11.5 18.5t-32.5 44.5
t-52 63.5t-68.5 67.5t-83 63.5t-95 44.5t-105.5 18zM794 175q-65 -65 -130 -101q-78 -43 -152 -43t-152 43q-65 36 -130 101q-57 56 -105 125q47 68 103 124q65 65 131 102q78 43 153 43q74 0 152 -43q66 -36 130 -100q57 -57 105 -126q-48 -69 -105 -125zM512 459
q-66 0 -112.5 -46.5t-46.5 -112.5t46.5 -112.5t112.5 -46.5t112.5 46.5t46.5 112.5t-46.5 112.5t-112.5 46.5zM512 193q-44 0 -75.5 31.5t-31.5 75.5t31.5 75.5t75.5 31.5t75.5 -31.5t31.5 -75.5t-31.5 -75.5t-75.5 -31.5z" />
    <glyph glyph-name="shanchu1" unicode="&#xe610;" 
d="M921 438h-818q-8 0 -14 6t-6 15v161q0 9 6 15t14 6h818q8 0 14 -6t6 -15v-161q0 -9 -6 -15t-14 -6zM124 479h776v121h-776v-121zM701.5 610q-8.5 0 -14.5 6t-6 15v70h-338v-70q0 -9 -6 -15t-14.5 -6t-14.5 6t-6 15v91q0 8 6 14t14 6h380q8 0 14 -6t6 -14v-91q0 -9 -6 -15
t-14.5 -6zM867 -139h-708q-9 0 -15 6t-6 15v577q0 8 6 14t15 6h708q9 0 15 -6t6 -14v-577q0 -9 -6 -15t-15 -6zM179 -98h668v536h-668v-536zM339.5 -118q-8.5 0 -14.5 6t-6 14v540q0 9 6 15t14.5 6t14.5 -6t6 -15v-540q0 -8 -6 -14t-14.5 -6zM519.5 -118q-8.5 0 -14.5 6
t-6 14v540q0 9 6 15t14.5 6t14.5 -6t6 -15v-540q0 -8 -6 -14t-14.5 -6zM698.5 -118q-8.5 0 -14.5 6t-6 14v540q0 9 6 15t14.5 6t14.5 -6t6 -15v-540q0 -8 -6 -14t-14.5 -6z" />
    <glyph glyph-name="gongsiyuangong" unicode="&#xe60c;" 
d="M592 -164h-172h-61.5t-55 1t-52 3.5t-42.5 7t-37.5 11t-26 16t-19 23t-5.5 30.5v17q0 121 88 207.5t211 86.5h172q124 0 211.5 -86.5t87.5 -207.5v-17q0 -23 -9.5 -39t-33.5 -26t-45 -15.5t-63.5 -8t-68.5 -3t-79 -0.5v0zM420 174q-96 0 -165 -67t-69 -162v-17
q0 -27 234 -27h172q234 0 234 27v17q0 95 -68.5 162t-165.5 67h-172zM497.5 277q-98.5 0 -168.5 69t-70 166.5t70 166.5t168.5 69t168.5 -69t70 -166.5t-70 -166.5t-168.5 -69zM497.5 683q-71.5 0 -122.5 -50t-51 -120.5t51 -120.5t122.5 -50t122.5 50t51 120.5t-51 120.5
t-122.5 50z" />
    <glyph glyph-name="tuichudenglu1" unicode="&#xe60d;" 
d="M788 652q48 -35 86 -78.5t64.5 -94t40.5 -107t14 -114.5q0 -100 -38 -187.5t-103 -153t-153 -103.5t-188 -38q-99 0 -186.5 38t-153 103.5t-103 153t-37.5 187.5q0 57 13.5 112t38 104.5t61 92.5t81.5 77q24 17 51.5 13t44.5 -27t13 -50.5t-27 -45.5q-68 -49 -104 -121
t-36 -155q0 -71 27 -134t74 -110t109.5 -74t133.5 -27t134 27t110 74t74.5 110t27.5 134q0 84 -39 158.5t-109 123.5q-23 16 -28 44t11 51t44 28t52 -11v0v0zM511 255q-28 0 -47.5 19.5t-19.5 47.5v409q0 28 19.5 48.5t47.5 20.5q29 0 49 -20.5t20 -48.5v-409
q0 -28 -19.5 -47.5t-49.5 -19.5v0v0z" />
    <glyph glyph-name="bianji" unicode="&#xe611;" 
d="M784 525l-126 126l63 63q15 15 37.5 15t37.5 -15l51 -51q15 -15 15 -37.5t-15 -37.5zM418 159l-126 126l342 340l126 -126zM191 56l77 205l124 -125zM756 13q14 0 23 -9.5t9 -22.5t-9 -22.5t-23 -9.5h-564q-13 0 -22 9.5t-9 22.5t9 22.5t22 9.5h564z" />
    <glyph glyph-name="shezhi2" unicode="&#xe60e;" 
d="M642 -171q-23 0 -36 18q-17 24 -44.5 37.5t-58.5 13.5q-63 0 -100 -46q-20 -25 -50 -15q-99 35 -175 106q-23 21 -10 50q25 57 -8 114q-31 54 -90 63q-14 2 -24.5 12t-13.5 24q-9 47 -9 94q0 54 13 110q3 14 13.5 23.5t24.5 10.5q30 3 55 20t40 44q32 55 10 111
q-12 29 11 50q80 70 182 101q14 4 27.5 -0.5t21.5 -16.5q18 -24 45 -37.5t59 -13.5q63 0 100 47q9 11 22.5 15t27.5 -1q96 -33 172 -104q11 -9 13.5 -23.5t-3.5 -27.5q-27 -58 7 -116q15 -27 39.5 -43.5t53.5 -20.5q14 -2 25 -11.5t13 -24.5q9 -47 9 -92q0 -54 -13 -111
q-3 -14 -14 -23.5t-25 -10.5q-30 -3 -56 -20t-42 -44q-31 -56 -8 -112q5 -13 1.5 -27t-13.5 -23q-79 -68 -179 -98q-6 -2 -13 -2zM503 -12q91 0 153 -63q52 20 97 53q-19 83 24 157q46 80 133 103q5 32 5 62q0 23 -3 47q-82 24 -125 100q-46 80 -23 166q-42 34 -92 56
q-62 -57 -147 -57q-92 0 -154 63q-54 -20 -100 -55q19 -82 -24 -157q-45 -78 -130 -101q-5 -32 -5 -62q0 -24 3 -49q79 -25 122 -99q45 -78 24 -163q43 -35 95 -57q61 56 147 56zM513.5 55q-65.5 0 -122.5 33t-90 90q-50 88 -24 186t114 149q57 33 122.5 33t122.5 -33
t90 -90q51 -88 24.5 -186t-114.5 -149q-57 -33 -122.5 -33zM513.5 456q-41.5 0 -77.5 -20q-56 -33 -73 -95.5t16 -118.5q21 -36 57 -57t78 -21t78 21q56 32 72.5 94.5t-15.5 118.5q-21 36 -57.5 57t-78 21z" />
    <glyph glyph-name="shezhi3" unicode="&#xe60f;" 
d="M644 -105v0q-25 0 -41 18q-16 17 -42.5 35t-48.5 18q-23 0 -49.5 -18t-41.5 -34q-16 -18 -41 -18q-11 0 -21 5h-1l-107 60l-1 1q-14 10 -19 27.5t2 33.5q10 23 10 43q0 47 -33 80t-80 33h-4v0q-14 0 -24 11t-13 30q-10 48 -10 85t10 85q3 19 13.5 30t23.5 10h4
q47 0 80 33.5t33 79.5q0 21 -10 44q-7 16 -2 33.5t19 27.5l2 1l112 62h1q10 4 21 4q25 0 41 -16q15 -17 41 -34t48 -17t47.5 17t41.5 33t40 16q12 0 21 -4l2 -1l108 -60l1 -1q15 -10 20 -27.5t-2 -33.5q-10 -23 -10 -44q0 -46 33 -79.5t80 -33.5h3q14 1 24.5 -10t13.5 -30
q9 -48 9 -85t-9 -85q-3 -19 -13.5 -30t-24.5 -11h-3q-47 0 -80 -33t-33 -80q0 -20 10 -43q7 -16 2 -33.5t-20 -27.5l-1 -1l-110 -61l-1 -1q-10 -4 -21 -4zM641 -53q1 -1 3 -1v0l103 57q-13 33 -13 63q0 66 45 113.5t110 50.5q8 45 8 75t-8 75q-65 3 -110 50.5t-45 112.5
q0 31 13 64l-101 56h-1q-2 0 -3 -1q-16 -16 -38 -32q-47 -33 -88 -33t-89 34q-22 16 -37 32q-2 1 -4 1h-1l-105 -57q14 -33 14 -64q0 -65 -45 -112.5t-110 -50.5q-8 -45 -8 -75t8 -75q65 -3 110 -50.5t45 -113.5q0 -30 -14 -63l100 -55v0h3q16 18 38 34q49 35 91 35t90 -36
q23 -16 39 -34zM512 155q-62 0 -106 44t-44 106.5t44 106.5t106 44t106 -44t44 -106.5t-44 -106.5t-106 -44zM512 405q-41 0 -70 -29t-29 -70.5t29 -70.5t70 -29t70 29t29 70.5t-29 70.5t-70 29z" />
    <glyph glyph-name="huodong" unicode="&#xe64f;" 
d="M848 314q5 -13 5 -25v-319q0 -28 -20 -48t-48 -20h-546q-28 0 -48 20t-20 48v319q0 13 5 25q-22 6 -36.5 24t-14.5 42v113q0 29 20 49t48 20h264l-98 97q-6 7 -6 16.5t6.5 16t16 6.5t16.5 -6l113 -114q7 -6 7 -16q0 10 7 16l113 114q7 6 16.5 6t16 -6.5t6.5 -16t-6 -16.5
l-98 -97h264q28 0 48 -20t20 -49v-113q0 -24 -14.5 -42t-36.5 -24zM762 -53q19 0 32.5 13.5t13.5 32.5v273q0 19 -13.5 32t-32.5 13h-227v-364h227zM216 -7q0 -19 13.5 -32.5t32.5 -13.5h227v364h-227q-19 0 -32.5 -13t-13.5 -32v-273zM216 516q-19 0 -32 -13.5t-13 -31.5
v-69q0 -19 13 -32t32 -13h273v159h-273zM853 471q0 18 -13 31.5t-32 13.5h-273v-159h273q19 0 32 13t13 32v69z" />
    <glyph glyph-name="erweima1" unicode="&#xe64a;" 
d="M148 -62h276v0h-276v0zM217 145h138v-138h-138v138zM562 282h69v-275h-69v275zM80 -131h413v413h-413v-413zM148 -62v275h276v-275v0h-276v0zM562 -62h138v-69h-138v69zM906 145h69v-69h-69v69zM769 282h206v-69h-206v69zM700 627h138v-138h-138v138zM975 765h-413v-414
h413v414zM906 420h-275v276h275v-276zM80 351h413v414h-413v-414zM148 696h276v-276h-276v276zM906 -62h-137v-69h206v138h-69v-69zM700 145v-138h138v69h-69v69h-69zM217 627h138v-138h-138v138z" />
    <glyph glyph-name="case" unicode="&#xe612;" 
d="M64 630h214v-678h-214v678zM537 577l202 69l219 -641l-202 -70zM779 194q-28 -9 -41 -35.5t-3.5 -54.5t36 -41t54.5 -3.5t41 36t3.5 54.5t-36 41t-54.5 3v0zM620 428l17 -47l146 50l-16 47zM587 526l16 -47l147 50l-16 47zM309 630h214v-678h-214v678zM414 189
q-29 0 -50 -20.5t-21 -50.5t21 -50.5t50.5 -20.5t50.5 20.5t21 50.5t-21 50.5t-51 20.5v0zM340 461v-49h155v49h-155zM340 565v-50h155v50h-155zM169 189q-29 0 -50 -20.5t-21 -50.5t21 -50.5t50.5 -20.5t50 20.5t20.5 50.5t-20.5 50.5t-50.5 20.5v0zM95 461v-49h155v49
h-155zM95 565v-50h155v50h-155z" />
    <glyph glyph-name="shanchu2" unicode="&#xe615;" 
d="M323 267v1v-1zM826 502q0 13 9 22t21.5 9t21.5 -9t9 -22v-542q0 -43 -30 -74q-1 0 -2 -1q-30 -29 -71 -29h-543q-43 0 -73.5 30.5t-30.5 73.5v542q0 13 9 22t22 9t22 -9t9 -22v-542q0 -18 12.5 -30.5t29.5 -12.5h543q16 0 28 12q1 0 1 1q13 12 13 30v542v0zM482 480v-457
q0 -13 9 -22t21.5 -9t21.5 9t9 22v457q0 13 -9 22t-21.5 9t-21.5 -9t-9 -22v0zM318 480v-457q0 -13 9 -22t21.5 -9t21.5 9t9 22v457q0 13 -9 22t-21.5 9t-21.5 -9t-9 -22v0zM645 480v-457q0 -13 9 -22t22 -9t22 9t9 22v457q0 13 -9 22t-22 9t-22 -9t-9 -22v0zM93 603
q-12 0 -21 9t-9 22t9 22t21 9h246l68 69q9 9 21 9v0h168q14 0 23 -11l68 -67h244q13 0 22 -9t9 -22t-9 -22t-22 -9h-257v0q-13 0 -22 9l-69 69h-142l-66 -67q-9 -11 -24 -11h-258z" />
    <glyph glyph-name="bianji1" unicode="&#xe616;" 
d="M62 633v-733q5 -6 8 -13.5t7 -13.5q6 -5 14 -8t14 -8h667q6 5 12.5 8.5t11 7.5t10.5 12q5 8 7.5 36t2.5 52t-0.5 59t-0.5 39v256q-7 -3 -12 -7.5t-10.5 -11t-8.5 -9.5q-15 -14 -19.5 -18t-8 -16t-2.5 -19.5t2 -36.5t1 -58v-235v0l-18 -3q-23 0 -189 -1t-293 -1t-140 2
q-2 15 -2 153t1 316t1 199v34q0 4 1 4l2 2h373q23 0 61 46q3 3 6 4q1 0 2 3q0 1 1 3h-407q-50 0 -61 -4.5t-27 -29.5q-4 -6 -6 -10v0zM363 163q2 14 7.5 32t12.5 41t10 32q1 6 2.5 14t2 10.5t3 7t5.5 7.5l8 8l301 306q8 8 25.5 26t26.5 27t24 19.5t26 11.5t26 -3.5t29 -18.5
q13 -13 19.5 -24t5.5 -23t-3.5 -21t-13.5 -22.5t-18.5 -21.5t-24.5 -24.5t-25 -24.5l-270 -269q-9 -8 -19 -19.5t-13 -14.5t-10.5 -8t-15 -7.5t-21.5 -6.5q-66 -27 -100 -34v0zM954 618v34q-3 6 -7.5 20t-7.5 20q-11 18 -25.5 31.5t-24 19t-23.5 12t-18 8.5h-39
q-5 -2 -23 -9.5t-29 -15.5q-19 -14 -334 -334q-2 -2 -22 -21t-34 -34t-17 -22q-2 -9 -22 -78.5t-29 -94.5q-1 -1 -3 -8t-3 -10t-2.5 -9t-1.5 -9.5t0.5 -8t3 -8t6.5 -6.5q16 -16 109 25q86 19 112 37l261 257q6 6 18.5 20t18.5 20q17 15 59 56.5t53 54.5q7 13 14 30t10 23v0z
M757 -84h-637v705l-2 -2q-1 0 -1 -4v-34q0 -21 -1 -199t-1 -316t2 -153q13 -2 140 -2t293 1t189 1l18 3v0v0zM62 -143h43q-6 5 -14 8t-14 8q-4 6 -7 13.5t-8 13.5v-43z" />
    <glyph glyph-name="yuangong04" unicode="&#xe613;" 
d="M367 214q-107 0 -182.5 75.5t-75.5 182.5t75.5 182.5t182.5 75.5t183 -75.5t76 -182.5t-76 -182.5t-183 -75.5zM367 649q-73 0 -124.5 -52t-51.5 -125t51.5 -125t124.5 -52t125 52t52 125t-52 125t-125 52zM691 -111q-17 0 -29 12t-12 29q0 117 -83 200t-200 83t-200 -83
t-83 -200q0 -17 -12 -29t-29 -12t-29 12t-12 29q0 74 29 142q28 66 78.5 116.5t115.5 77.5q68 29 142.5 29t141.5 -29q66 -27 116.5 -77.5t78.5 -116.5q28 -68 28 -142q0 -17 -12 -29t-29 -12zM658 214q-17 0 -29 11.5t-12 28.5t12 29t29 12q73 0 125 52t52 125t-52 125
t-125 52q-17 0 -29 12t-12 29t12 28.5t29 11.5q107 0 183 -75.5t76 -182.5t-76 -182.5t-183 -75.5zM982 -111q-17 0 -29 12t-12 29q0 117 -83 200t-200 83q-17 0 -29 12t-12 29t12 29t29 12q74 0 142 -29q66 -27 116.5 -77.5t77.5 -116.5q29 -68 29 -142q0 -17 -12 -29
t-29 -12z" />
    <glyph glyph-name="yuangong05" unicode="&#xe614;" 
d="M628 201q-40 40 -90 66q3 2 5 5q72 72 72 174.5t-72.5 174.5t-174.5 72t-174.5 -72t-72.5 -174.5t72 -174.5l5 -5q-50 -26 -90 -66q-51 -51 -78 -117q-29 -68 -29 -143q0 -23 16.5 -39.5t39.5 -16.5t39.5 16.5t16.5 39.5q0 105 75 180t180 75t180 -75t75 -180
q0 -23 16.5 -39.5t39.5 -16.5t39.5 16.5t16.5 39.5q0 75 -28 143q-28 66 -79 117zM368 581q56 0 95.5 -39.5t39.5 -95t-39.5 -95t-95.5 -39.5t-95.5 39.5t-39.5 95t39.5 95t95.5 39.5zM926 199q-39 42 -89 69l4 4q72 72 72 174.5t-72.5 174.5t-174.5 72q-23 0 -39.5 -16
t-16.5 -39.5t16.5 -40t39.5 -16.5q56 0 95 -39.5t39 -95t-39 -95t-95 -39.5q-23 0 -39.5 -16.5t-16.5 -40.5q0 -18 10.5 -32.5t27.5 -20.5q12 -6 26 -6q101 0 168.5 -73t67.5 -182q0 -23 16.5 -39.5t40 -16.5t40 16.5t16.5 39.5q0 153 -97 258zM345 -59z" />
    <glyph glyph-name="bianji2" unicode="&#xe61b;" 
d="M120 -148h643q23 0 39.5 16.5t16.5 39.5v410l-56 -54v-356h-643v699h393l56 55l-1 1h-448q-23 0 -39.5 -16t-16.5 -40v-699q0 -23 16.5 -39.5t39.5 -16.5zM916 711q-38 37 -83 37q-50 0 -90 -40l-383 -383q-5 -4 -6 -10q-2 -8 -61 -204q-5 -13 6 -24q6 -6 16 -6q4 0 7 1
q117 39 200 64q6 1 10 5q376 372 386 382q43 44 42 91q-1 46 -44 87zM878 572q-24 -25 -363 -358l-17 -17q-32 -10 -134 -43q31 103 41 138q363 362 378 377q23 23 50 23q22 0 44 -21q27 -26 27 -48q0 -24 -26 -51z" />
    <glyph glyph-name="huodong1" unicode="&#xe66f;" 
d="M714 715v0q22 0 33 -10q9 -9 9 -24q0 -36 -36 -69q-24 -22 -59.5 -37t-63.5 -15q-5 0 -9 0.5t-6 1l-2 0.5v0q-7 13 7.5 51.5t44.5 66.5q38 35 82 35zM714 788q-73 0 -131 -55q-53 -49 -71.5 -117t17.5 -107q24 -22 68 -22q42 0 90.5 20t82.5 52q49 46 57 104.5t-31 94.5
q-32 30 -82 30v0v0zM341 715q44 0 82 -35q30 -28 44.5 -66.5t8.5 -50.5q-7 -3 -18 -3q-28 0 -63.5 15t-59.5 37q-35 33 -35 69q0 15 8 24q11 10 33 10zM341 788q-50 0 -82 -30q-39 -36 -31 -94.5t57 -104.5q34 -32 82.5 -52t90.5 -20q44 0 68 22q36 39 17.5 107t-71.5 117
q-58 55 -131 55v0v0zM956 201v250q0 30 -21 51t-50 21h-322v-322h393v0zM563 130v-322h322q29 0 50 21t21 51v250h-393v0zM492 201v322h-322q-29 0 -50 -21t-21 -51v-250h393v0zM99 130v-250q0 -30 21 -51t50 -21h322v322h-393v0z" />
    <glyph glyph-name="quan01" unicode="&#xe618;" 
d="M512 729q87 0 167 -34q77 -32 136.5 -91.5t91.5 -136.5q34 -80 34 -167t-34 -167q-32 -77 -91.5 -136.5t-136.5 -91.5q-80 -34 -167 -34t-167 34q-77 32 -136.5 91.5t-91.5 136.5q-34 80 -34 167t34 167q32 77 91.5 136.5t136.5 91.5q80 34 167 34zM512 -79q77 0 148 30
q68 29 120 81t81 120q30 71 30 148t-30 148q-29 68 -81 120t-120 81q-71 30 -148 30t-148 -30q-68 -29 -120 -81t-81 -120q-30 -71 -30 -148t30 -148q29 -68 81 -120t120 -81q71 -30 148 -30z" />
    <glyph glyph-name="zuopin" unicode="&#xe619;" 
d="M320 610q-32 0 -55 -23t-23 -55t23 -55t55 -23t55 23t23 55t-23 55t-55 23zM320.5 487q-18.5 0 -32 13t-13.5 32t13.5 32t32 13t31.5 -13t13 -32t-13 -32t-31.5 -13zM856 700h-680q-19 0 -32 -13t-13 -32v-553q0 -18 13 -31.5t32 -13.5h680q19 0 32 13.5t13 31.5v553
q0 19 -13 32t-32 13zM176 95q-8 0 -8 7v61l209 152l64 -64l-134 -156h-131v0zM864 102q0 -7 -8 -7h-500l255 296l253 -209v-80v0zM864 236l-255 210l-143 -167l-88 89l-210 -153v440q0 8 8 8h680q8 0 8 -8v-419v0z" />
    <glyph glyph-name="arrows-copy" unicode="&#xe61c;" 
d="M534 156q-10 -9 -23 -9t-23 9l-414 414q-9 9 -9 22.5t10 23.5v0q9 9 22.5 9t22.5 -9l414 -414q10 -9 9.5 -22.5t-9.5 -23.5v0zM948 615q9 -10 9 -23.5t-9 -22.5l-414 -414q-9 -9 -22.5 -9t-23.5 9v0q-9 10 -9 23.5t9 22.5l414 414q10 9 23 9t23 -9v0z" />
    <glyph glyph-name="tuichu" unicode="&#xe617;" 
d="M527.5 763q-98.5 0 -182 -48.5t-132 -132t-48.5 -182t48.5 -182t132 -132t182 -48.5t182 48.5t132 132t48.5 182t-48.5 182t-132 132t-182 48.5zM591 197h-170q-28 0 -48 20t-20 48v272q0 28 20 48t48 20h170q14 0 24 -10t10 -24t-10 -24t-24 -10h-102h-34q-14 0 -24 -10
t-10 -24v0v0v-34v-136v-34q0 -14 10 -24t24 -10v0v0h34h102q14 0 24 -10t10 -24t-10 -24t-24 -10zM757 390l-68 -85q-5 -6 -13 -6q-3 0 -5 1q-12 4 -12 16v51h-136q-14 0 -24 10t-10 24t10 24t24 10h136v51q0 12 12 16q2 1 5 1q8 0 13 -7l68 -85q9 -10 0 -21z" />
    <glyph glyph-name="erweima2" unicode="&#xe64b;" 
d="M274 456h166v166h-166v-2v-164v0zM350 572q17 3 29 -6.5t12 -25.5q1 -21 -16 -30.5t-34 -1.5q-20 10 -17.5 34.5t26.5 29.5zM274 310v-164h166v166h-166q-1 0 0 -2zM324 239q6 21 29 24q19 2 31 -13t5 -34q-6 -17 -24.5 -20t-32.5 9.5t-8 33.5zM583 620v-164h167v166
h-166q-1 0 -1 -2zM659 572q31 5 39 -22q8 -25 -12 -39q-11 -8 -27 -5.5t-23 17.5t-0.5 30.5t23.5 18.5zM512 896q-104 0 -199 -40.5t-163.5 -109t-109 -163.5t-40.5 -199t40.5 -199t109 -163.5t163.5 -109t199 -40.5t199 40.5t163.5 109t109 163.5t40.5 199t-40.5 199
t-109 163.5t-163.5 109t-199 40.5zM224 654q5 14 18 18h231q6 -1 10.5 -5.5t5.5 -13.5t1.5 -15t0 -19.5t-0.5 -16.5v-126q0 -5 0.5 -16.5t0.5 -17.5t-1 -14.5t-4.5 -13t-8.5 -7t-15.5 -2.5t-25.5 0.5t-18 0.5h-123q-4 0 -17 -0.5t-19.5 0t-15 1.5t-13.5 5.5t-6 11.5v230v0z
M471 96h-228q-15 5 -19 19v229q5 14 16 17q6 2 16 2t23 -0.5t19 -0.5h118q5 0 18 1t23.5 0.5t17.5 -2.5q6 -2 9.5 -7t5 -14t1.5 -15.5t-0.5 -19t-0.5 -16.5v-122q0 -4 0.5 -17.5t0.5 -19.5t-2 -15t-6.5 -13.5t-11.5 -5.5zM690 96h-56q1 5 0.5 30.5t0.5 29.5h55v-60v0z
M800 117q-3 -16 -19 -21h-39v30.5t1 29.5h57v-39v0zM800 277q-1 -5 -1 -34v-35h-165v37q-2 1 -24.5 1h-26.5q-1 -12 -0.5 -74.5t-0.5 -75.5h-30q-7 2 -11.5 6.5t-6 13.5t-1.5 16t0.5 20t0.5 18v119q0 5 -1 18.5t-0.5 23.5t2.5 16q1 4 3 6.5t5.5 4t6 2.5t8 1.5t8.5 0.5h10h10
h112v-102h52q0 9 -0.5 51.5t1.5 50.5h23t18 -5t8 -16v-64v0zM800 427q-4 -17 -16 -20q-7 -2 -17 -2t-23 0.5t-18 0.5h-119q-5 0 -18.5 -0.5t-23.5 -0.5t-17 2q-6 2 -9.5 7t-4.5 14t-1 16t0.5 19.5t0.5 16.5v118q0 5 -1 18.5t-0.5 20t2 15.5t5.5 13.5t11 6.5h231
q15 -6 18 -21v-224v0z" />
    <glyph glyph-name="erweima3" unicode="&#xe64c;" 
d="M73 856h376q10 -1 17 -8t9 -22t3 -25t0 -31.5t-1 -27.5v-204q0 -8 0.5 -27.5t0.5 -29t-2 -23t-7 -21t-13.5 -11.5t-26 -4.5t-41 1t-30.5 1.5h-198q-8 0 -28.5 -1t-31.5 -0.5t-25 2.5t-21.5 9t-9.5 19v375q9 23 29 28v0v0zM124 772v-267h271v270h-269q-2 0 -2 -3v0v0z
M578 856h375q24 -8 29 -34v-365q-5 -27 -27 -33q-11 -3 -27 -3.5t-37 1t-30 1.5h-192q-9 0 -31 -1.5t-38.5 -1t-27.5 3.5q-9 3 -15 11.5t-7.5 23t-2 26t0.5 31.5t1 28v192q0 10 -1 31t-0.5 32t2.5 25.5t9 22t19 9.5v0v0zM630 772v-267h271v270h-270q-3 0 -1 -3v0v0zM248 693
q28 6 48 -10t20 -42q1 -33 -26.5 -49t-55.5 -2q-20 10 -26.5 33.5t4.5 44.5t36 25v0v0zM753 693q47 9 62 -30q13 -34 -9 -61q-19 -23 -53 -17q-27 4 -38 29t-0.5 49.5t38.5 29.5v0v0zM446 -82h-372q-24 8 -31 30v375q8 22 26 27q11 3 27 3.5t37 -1t30 -1.5h193q9 0 30.5 1.5
t38 1t28.5 -3.5q10 -3 16 -11t8 -23t2.5 -25.5t-0.5 -31t-1 -27.5v-197q0 -7 1 -29.5t0 -32.5t-3.5 -25t-10 -22t-19.5 -8v0v0zM124 266v-267h271v271h-269q-2 0 -2 -4v0v0zM983 317v-104q-2 -10 -1.5 -55.5t0.5 -58.5h-269v62q-8 2 -41 1t-42 0q-2 -26 -1.5 -121.5
t0.5 -122.5h-49q-12 2 -19.5 10t-10 22.5t-3 25.5t0.5 33t1 30v192q0 9 -1.5 31t-1 38.5t3.5 27.5q2 5 5 9.5t9 7t10 4t13.5 2t14 1t16 0t15.5 -0.5h183v-166h85q0 18 -0.5 83.5t1.5 82.5q21 1 38.5 0.5t29.5 -9t13 -25.5v0v0zM254 189q31 4 50.5 -20.5t7.5 -54.5
q-10 -28 -40.5 -33.5t-52.5 15t-13 55.5q10 34 48 38v0v0zM804 -82h-91q0 11 -0.5 49.5t1.5 47.5h90v-97v0v0zM983 15v-63q-4 -26 -31 -34h-64q0 11 -0.5 49.5t1.5 47.5h94v0v0zM983 15z" />
    <glyph glyph-name="shouyeshouye" unicode="&#xe61a;" 
d="M937 434q-1 21 -14 40q-1 1 -81 86.5t-159 170t-79 85.5q-33 34 -80 34v1h-0.5h-1h-1h-0.5v-1q-48 0 -81 -34q-316 -339 -318 -342q-14 -19 -14 -40v-6q0 -35 24.5 -59.5t59.5 -24.5h20v-300q0 -37 28.5 -63t69 -26t69.5 26t29 63v300h113h3h113v-300q0 -37 28.5 -63
t69.5 -26t69.5 26t28.5 63v300h20q35 0 59.5 24.5t24.5 59.5v0.5v0.5v5zM812 736v0l63 -67q7 -7 16.5 -7t16.5 6h1l1 1q4 5 5 11q0 1 1 3v3l7 124q1 13 -8 23v0v0h-1v0q-9 10 -22 10h-124q-1 0 -3 -1h-3q-7 -1 -11 -5l-1 -1v0q-7 -7 -7.5 -16.5t6.5 -16.5z" />
    <glyph glyph-name="chevron-copy-copy-copy-copy" unicode="&#xe61d;" 
d="M249 362l479 -480q11 -10 25.5 -10t25 10.5t10.5 25t-10 25.5l-456 456l448 448q11 10 11 24.5t-10.5 24.5t-24.5 10t-25 -10l-465 -466q-1 0 -4 -6q-1 0 -2 -0.5t-2 -1.5q-10 -10 -10 -25t10 -25z" />
    <glyph glyph-name="jiantou-copy" unicode="&#xe61e;" 
d="M630 867q9 0 17 -6q9 -7 11 -18.5t-5 -21.5l-297 -418l297 -417q7 -10 5 -21.5t-11.5 -18.5t-21.5 -5t-19 11l-309 435q-12 16 0 33l309 434q9 13 24 13z" />
    <glyph glyph-name="arrowll-copy" unicode="&#xe61f;" 
d="M512 145l-431 432l34 34l431 -431zM942 577l-431 -432l-34 35l431 431z" />
    <glyph glyph-name="cuowu1" unicode="&#xe62e;" 
d="M512 -128q-104 0 -199 41t-163.5 109.5t-109 163t-40.5 198.5t40.5 199t109 163.5t163.5 109t199 40.5t199 -40.5t163.5 -109t109 -163.5t40.5 -199t-40.5 -198.5t-109 -163t-163.5 -109.5t-199 -41zM512 768q-104 0 -192.5 -51.5t-140 -140t-51.5 -192.5t51.5 -192.5
t140 -140t192.5 -51.5t192.5 51.5t140 140t51.5 192.5t-51.5 192.5t-140 140t-192.5 51.5zM693 203.5q-19 -18.5 -45.5 -18.5t-45.5 18l-90 91l-91 -91q-18 -18 -44.5 -18t-45.5 18.5t-19 45t19 45.5l90 90l-90 91q-19 18 -19 44.5t19 45.5t45.5 19t44.5 -19l91 -90l90 90
q19 19 45.5 19t45.5 -19t19 -45.5t-19 -44.5l-91 -91l91 -90q19 -19 19 -45.5t-19 -45z" />
    <glyph glyph-name="dingdan" unicode="&#xe650;" 
d="M312 90v-152h583v893h-766v-710h183v-1v-30v0zM276 -62l-147 151h147v-151v0zM727 660l-147 -251h116v-56h-136v-77h136v-56h-136v-111h-75v111h-140v56h140v77h-140v56h118l-145 251h85l102 -196q8 -16 19 -41h1q8 21 20 43l102 194h80z" />
    <glyph glyph-name="shangyuegakuang" unicode="&#xe620;" 
d="M918 413l-99 98v139q0 17 -12 29t-29 12h-139l-98 98q-12 12 -29 12t-29 -12l-98 -98h-139q-17 0 -29 -12t-12 -29v-139l-98 -98q-12 -12 -12 -29t12 -29l98 -98v-139q0 -17 12 -29t29 -12h139l98 -98q12 -12 29 -12t29 12l98 98h139q17 0 29 12t12 29v139l99 98
q12 12 12 29t-12 29zM512 118q-110 0 -188 78t-78 188t78 188t188 78t188 -78t78 -188t-78 -188t-188 -78z" />
    <glyph glyph-name="quan" unicode="&#xe621;" 
d="M508 192q-79 0 -135 55.5t-56 135t56 135.5t135.5 56t135 -56t55.5 -135.5t-55.5 -135t-135.5 -55.5v0v0zM508 478q-39 0 -67 -28t-28 -67.5t28 -67.5t67.5 -28t67.5 28t28 67.5t-28 67.5t-68 28v0v0z" />
    <glyph glyph-name="wodezuopin" unicode="&#xe622;" 
d="M512 -128q212 0 362 150t150 362t-150 362t-362 150t-362 -150t-150 -362t150 -362t362 -150v0v0zM512 831q91 0 173.5 -35.5t142.5 -95.5t95.5 -142.5t35.5 -173.5t-35.5 -173.5t-95.5 -142.5t-142.5 -95.5t-173.5 -35.5t-173.5 35.5t-142.5 95.5t-95.5 142.5
t-35.5 173.5t35.5 173.5t95.5 142.5t142.5 95.5t173.5 35.5v0v0zM512 722q82 0 141.5 -58t59.5 -140t-58.5 -140t-142.5 -58q-82 0 -141.5 58t-59.5 140t59.5 140t141.5 58v0v0zM512 381q59 0 101 41.5t42 98.5q0 58 -42 98.5t-101 40.5t-101 -41.5t-42 -98t42 -98
t101 -41.5v0v0zM512 381q118 0 202.5 -83t84.5 -201h-58q0 95 -67 160.5t-162 65.5q-94 0 -161.5 -66.5t-67.5 -159.5h-58q0 118 84.5 201t202.5 83v0v0zM512 381z" />
    <glyph glyph-name="bofang2" unicode="&#xe625;" 
d="M511.5 827q-90.5 0 -172.5 -35t-141.5 -94.5t-95 -142t-35.5 -173t35.5 -172.5t95 -141.5t141.5 -95t172.5 -35.5t173 35.5t142 95t94.5 141.5t35 172.5t-35 173t-94.5 142t-142 94.5t-173 35zM511.5 -6q-105.5 0 -195 52t-141.5 141.5t-52 195t52 195.5t141.5 142
t195 52t195.5 -52t142 -142t52 -195.5t-52 -195t-142 -141.5t-195.5 -52zM647 383l-232 -179v358z" />
    <glyph glyph-name="202" unicode="&#xe623;" 
d="M344 33q-13 0 -21.5 9t-8.5 21.5t9 21.5l309 304l-312 313q-9 9 -9 21.5t9 21.5t21.5 9t21.5 -9l335 -334q9 -10 9 -22.5t-10 -21.5l-331 -325q-9 -9 -22 -9z" />
    <glyph glyph-name="jiantou-copy1" unicode="&#xe624;" 
d="M512 206l-428 428q-10 10 -24.5 10t-25 -10.5t-10.5 -25t10 -24.5l449 -450q15 -14 29 -14q21 0 29 7l456 457q11 10 11 24.5t-11 25t-25 10.5t-25 -10z" />
    <glyph glyph-name="yuanquan" unicode="&#xe626;" 
d="M512 830q-91 0 -173.5 -35.5t-142 -95t-95 -142t-35.5 -173.5t35.5 -173.5t95 -142t142 -95t173.5 -35.5t173.5 35.5t142 95t95 142t35.5 173.5t-35.5 173.5t-95 142t-142 95t-173.5 35.5zM755 141q-48 -48 -109 -74q-64 -27 -134 -27t-134 27q-61 26 -109 74t-74 109
q-27 64 -27 134t27 134q26 61 74 109t109 74q64 27 134 27t134 -27q61 -26 109 -74t74 -109q27 -64 27 -134t-27 -134q-26 -61 -74 -109z" />
    <glyph glyph-name="tongzhi" unicode="&#xe651;" 
d="M687 774q-20 11 -40 -1l-243 -151h-186q-62 0 -106.5 -45t-44.5 -108v-170q0 -63 44.5 -108t106.5 -45h186l243 -151q9 -6 21 -6q10 0 19 5q20 11 20 35v710q0 24 -20 35zM628 100l-192 119q-10 6 -21 6h-197q-30 0 -51 21.5t-21 52.5v170q0 31 21 52.5t51 21.5h197
q11 0 21 6l192 119v-568zM806 682q-9 6 -19.5 4.5t-17 -10.5t-5 -19.5t10.5 -17.5q61 -44 95.5 -111.5t34.5 -143.5t-34.5 -143.5t-95.5 -111.5q-9 -6 -10.5 -17t4.5 -20q8 -11 22 -11q8 0 15 5q71 52 111 131t40 167t-40 167t-111 131z" />
    <glyph glyph-name="signout" unicode="&#xe627;" 
d="M402 73q0 -2 0.5 -11t0 -15t-2 -13.5t-5.5 -11.5t-12 -4h-183q-68 0 -116 48.5t-48 116.5v402q0 68 48 116.5t116 48.5h183q8 0 13.5 -5.5t5.5 -13.5q0 -2 0.5 -11t0 -15t-2 -13.5t-5.5 -11t-12 -3.5h-183q-37 0 -64 -27t-27 -65v-402q0 -38 27 -65t64 -27h179h6l7 -2
l4 -3l4 -5l2 -8v0zM932 384q0 -15 -11 -26l-311 -311q-11 -10 -25.5 -10t-25.5 10.5t-11 25.5v165h-256q-15 0 -26 10.5t-11 25.5v220q0 15 11 25.5t26 10.5h256v165q0 15 11 25.5t25.5 10.5t25.5 -10l311 -311q11 -11 11 -26z" />
    <glyph glyph-name="a510" unicode="&#xe629;" 
d="M952 383l-419 439q-8 8 -20 8t-20 -8l-421 -439q-8 -9 -8 -20.5t8.5 -19.5t20 -7.5t19.5 8.5l38 39v-417q0 -12 8 -20t19 -8h670q11 0 19 8t8 20v417l38 -39q8 -8 20 -8q11 0 19 7q9 8 9 19.5t-8 20.5zM819 434v-440h-614v440v7l308 321l307 -321q-1 -4 -1 -7zM416 364
q-3 6 -7 11q-4 6 -9.5 9.5t-13.5 4.5q-7 2 -16 2h-29q-9 0 -16 -5q-8 -6 -8 -18v-274q0 -3 2 -6t6 -4q3 -1 8 -1.5t12 -0.5t12 0.5t8 1.5q4 1 6.5 4t2.5 6v236l108 -239q1 -3 3 -5l6 -2t7.5 -1.5t10.5 -0.5h10t8 1q3 1 5.5 3t3.5 5l114 241v-238q0 -4 2.5 -6.5t6.5 -3.5
q3 -1 8 -1.5t12 -0.5t11.5 0.5t7.5 1.5q5 1 7 3.5t2 6.5v274q0 6 -2 10.5t-5.5 7t-8.5 4.5q-4 1 -9 1h-30q-7 0 -13 -1q-6 -2 -11 -5.5t-9 -8.5q-4 -6 -8 -13l-99 -206zM453 518.5q0 -24.5 17.5 -41.5t41.5 -17t41.5 17t17.5 41.5t-17.5 41.5t-41.5 17t-41.5 -17
t-17.5 -41.5z" />
    <glyph glyph-name="bianji3" unicode="&#xe628;" 
d="M954 535q0 57 -39 96l-156 156q-40 40 -97 40t-97 -40l-490 -490h-1l-1 -1v-1v0h-1v-1v-1h-1v0v-1h-1v-1l-1 -1v0v0v-1l-1 -1v0v0v-1h-1v-1v0v-1v-1l-1 -1l-1 -1v0v-2v0v0v-1v0v-1h-1v-1v0v-1v0v-2v0v-1v0v-299q0 -16 11 -27t26 -11h299h1h1l1 1v0h1h2h1l1 1l4 1l2 1h1v1
h1l1 1h1l1 1v0l1 1h1l1 1l3 3q320 320 490 489q40 40 40 98h-1v0zM503 620v0l44 -44l-349 -350l-44 45l349 349v0zM138 11v0v170l170 -170h-170v0zM229 195v0l350 349l93 -93l-350 -349l-93 93v0zM398 26v0l-44 44l349 350l45 -45l-350 -349v0zM881 535v0v0q0 -27 -19 -45
l-34 -34l-22 -22l-6 -6l-245 244l29 29l33 33q19 19 45 19t44 -19l156 -155q19 -19 19 -44v0z" />
    <glyph glyph-name="touxiang" unicode="&#xe632;" 
d="M512 878q-100 0 -191.5 -39t-158 -105.5t-105.5 -158t-39 -191.5t39 -191.5t105.5 -158t158 -105.5t191.5 -39t191.5 39t158 105.5t105.5 158t39 191.5t-39 191.5t-105.5 158t-158 105.5t-191.5 39v0zM86 384q0 115 57 213.5t155.5 155.5t213.5 57t213.5 -57
t155.5 -155.5t57 -213.5q0 -153 -99 -272q-6 6 -31 19q-31 15 -52.5 18.5t-58.5 18.5l-92 37v68q2 2 6.5 7t14.5 27t16 52q12 -4 18 8t6 29q0 3 1.5 11.5t2 16t0 16t-4.5 13.5t-11 5q6 31 6 74q-5 47 -38 79t-98 32q-53 0 -92 -33.5t-44 -77.5q0 -43 7 -74q-11 4 -12 -15
q-2 -23 5 -47q0 -12 5.5 -23.5t13.5 -7.5q3 -30 12 -51.5t17 -28.5l8 -6v-68q-19 -12 -93 -43q-36 -15 -57.5 -18.5t-53.5 -18.5q-37 -25 -49 -37q-105 136 -105 290v0zM86 384z" />
    <glyph glyph-name="xiangmu" unicode="&#xe62a;" 
d="M512 59l-333 149l-48 22q-2 1 -3 1q0 -36 22 -48l326 -145q21 -11 35 -11t37 11l326 145q22 10 22 48l-51 -25l-333 -145v-2zM512 67zM148 488l328 -146q22 -10 36 -10t37 10l329 146q18 8 18 35t-18 37l-329 172q-19 11 -35 10.5t-38 -10.5l-328 -172q-19 -12 -19 -37
t19 -35v0zM513 716h1l1 -1l356 -190l-357 -160l-360 160l360 191h-1zM150 336l326 -146q21 -10 35 -10t37 10l326 146q22 10 22 49l-51 -25l-333 -148l-333 148l-51 25q0 -38 22 -49v0zM150 336zM480 143zM117 305z" />
    <glyph glyph-name="chakan" unicode="&#xe634;" 
d="M956 271q-83 -112 -198.5 -175.5t-245.5 -63.5t-245.5 63.5t-198.5 175.5q-36 49 -36 113t36 113q83 112 198.5 175.5t245.5 63.5t245.5 -63.5t198.5 -175.5q36 -49 36 -113t-36 -113zM908 444q-76 108 -179.5 168t-217.5 60t-218 -60t-179 -168q-18 -26 -18 -60t18 -60
q75 -108 179 -168t218 -60t217.5 60t179.5 168q18 26 18 60t-18 60zM512.5 160q-92.5 0 -158.5 65.5t-66 158.5t66 158.5t158.5 65.5t158 -65.5t65.5 -158.5t-65.5 -158.5t-158 -65.5zM512.5 544q-66.5 0 -113.5 -47t-47 -113t47 -113t113.5 -47t113 47t46.5 113t-46.5 113
t-113 47z" />
    <glyph glyph-name="chakan1" unicode="&#xe636;" 
d="M511.5 626q125.5 0 228.5 -66.5t155 -175.5h67q-55 135 -177.5 219t-273 84t-273 -84t-177.5 -219h67q52 109 155 175.5t228.5 66.5zM511.5 141q-125.5 0 -228.5 66.5t-155 176.5h-67q55 -136 177.5 -220t273 -84t273 84t177.5 220h-67q-52 -110 -155 -176.5
t-228.5 -66.5zM350 384q0 -67 47 -114.5t114.5 -47.5t114.5 47.5t47 114.5t-47 114t-114.5 47t-114.5 -47t-47 -114zM613 383.5q0 -41.5 -30 -71.5t-71.5 -30t-71.5 30t-30 71.5t30 71.5t71.5 30t71.5 -30t30 -71.5z" />
    <glyph glyph-name="bofang3" unicode="&#xe640;" 
d="M664 401l-211 137q-10 6 -18.5 2t-8.5 -20v-269q0 -16 9 -20.5t18 2.5l211 136q7 7 7 16.5t-7 15.5zM886 385.5q0 -101.5 -50 -188t-136 -136.5t-188 -50t-188 50t-136 136.5t-50 188t50 187.5t136 136t188 50t188 -50t136 -136t50 -187.5z" />
    <glyph glyph-name="yuangong" unicode="&#xe62b;" 
d="M327 286q42 8 61 15q10 3 16 6q-27 30 -44 70q-22 50 -22 103q-1 64 8 109q13 63 48 99q11 11 27 21q-23 79 -105 79q-30 0 -51.5 -10t-34 -25t-19.5 -39.5t-9.5 -48.5t-1.5 -57q0 -37 15.5 -73t40.5 -58q5 -5 5 -12q0 -27 -5 -34q-6 -9 -16 -15.5t-26 -11.5t-27 -8
t-33 -7t-31 -6t-19 -14.5t-10 -26.5v-152q0 -13 8 -21t17 -8h23q10 28 24 48q13 19 31 32t43 22t41 13t46 10zM901 383q-9 2 -31 6t-33 7t-27 8t-26 11.5t-16 15.5q-5 7 -5 34q0 7 5 12q25 22 40.5 58t15.5 73q1 33 -1.5 57t-9.5 48.5t-19.5 39.5t-34 25t-51.5 10
q-82 0 -105 -79q16 -10 27 -21q35 -36 48 -99q9 -45 8 -109q0 -53 -22 -103q-17 -40 -44 -70q6 -3 16 -6q19 -7 61 -15q30 -6 46 -10t41 -13t43 -22t31 -32q14 -20 24 -48h23q9 0 17 8t8 21v152q0 14 -10 26.5t-19 14.5zM577 283q-6 8 -5 38q0 7 6 13q28 25 45 65.5t17 83.5
q0 36 -2.5 63t-10.5 54t-21.5 44t-37 27.5t-55.5 10.5q-33 0 -57 -10.5t-38 -28t-22 -44.5t-10 -54t-2 -64q1 -42 18 -82t45 -65q6 -6 6 -14q0 -30 -6 -37q-14 -20 -49.5 -32t-71 -17t-72 -18.5t-51.5 -35.5q-34 -49 -42 -181q0 -7 5 -13t13 -6h666q8 0 13 6t5 13
q-7 133 -43 181q-16 21 -52.5 34.5t-71 18.5t-69.5 17.5t-50 32.5z" />
    <glyph glyph-name="jiantou-copy2" unicode="&#xe62c;" 
d="M958 575l-63 64l-384 -381l-380 384l-64 -63l444 -449z" />
    <glyph glyph-name="kehuxinxi" unicode="&#xe62d;" 
d="M630 409q34 27 53.5 66t19.5 84q0 78 -56 134t-135.5 56t-135.5 -56t-56 -134q0 -45 19.5 -84t53.5 -66q-89 -36 -145 -116t-56 -179v-63q0 -13 9.5 -22.5t22.5 -9.5h575q13 0 22.5 9.5t9.5 22.5v63q0 99 -56 179t-145 116v0zM384 559q0 52 37.5 89t90 37t90 -37
t37.5 -89.5t-37.5 -89.5t-90 -37t-90 37t-37.5 90v0zM767 82h-511v32q0 105 75 179.5t180.5 74.5t180.5 -74.5t75 -179.5v-32v0zM273 379l6 2q23 8 23 30q0 21 -22 29q-25 12 -40.5 35.5t-15.5 51.5q0 31 18.5 56t47.5 34q10 31 30 57q4 5 7 11h-3.5h-3.5q-66 0 -113 -46.5
t-47 -111.5q0 -61 42 -107q-63 -32 -100.5 -92.5t-37.5 -132.5v-49q0 -13 9.5 -22.5t22.5 -9.5h57q0 32 7 64h-32v17q0 66 40.5 117t104.5 67v0zM821 420q42 46 42 107q0 65 -47 111.5t-113 46.5h-4.5h-3.5q4 -6 7 -11q20 -26 30 -57q29 -9 48 -34t19 -56q0 -28 -15.5 -51.5
t-41.5 -35.5q-21 -8 -21 -29q0 -22 23 -30l6 -2q64 -16 104 -67t40 -117v-17h-31q6 -32 6 -64h57q14 0 23 9.5t9 22.5v49q0 72 -37 132.5t-100 92.5v0z" />
    <glyph glyph-name="tuichu1" unicode="&#xe637;" 
d="M906 831h-788q-22 0 -38 -16t-16 -38v-210v-129h545l-142 142q-15 16 -15 38.5t15.5 38t38 15.5t38.5 -15l235 -236q16 -15 16 -37.5t-16 -38.5l-230 -231q-16 -16 -38.5 -16t-38.5 16t-16 38.5t16 38.5l139 139h-547v-128v-211q0 -22 16 -38t38 -16h788q22 0 38 16
t16 38v786q0 22 -16 38t-38 16z" />
    <glyph glyph-name="jiantou1" unicode="&#xe62f;" 
d="M329 767l-47 -50l360 -333l-360 -333l47 -50l413 383z" />
    <glyph glyph-name="tuichudenglu2" unicode="&#xe631;" 
d="M555 768h-86v-427h86v427zM761 675l-61 -60q52 -42 81.5 -102t29.5 -129q0 -124 -87.5 -211.5t-211.5 -87.5t-211.5 87.5t-87.5 211.5q0 69 29.5 129t80.5 102l-60 60q-63 -53 -99 -129t-36 -162q0 -159 112.5 -271.5t271.5 -112.5t271.5 112.5t112.5 271.5q0 86 -36 162
t-99 129z" />
    <glyph glyph-name="chaxun" unicode="&#xe630;" 
d="M934 65l-213 214q-1 1 -8 6q57 88 57 193q0 96 -47 178t-128 129t-176.5 47t-176.5 -47t-128 -129t-47 -178t47 -177.5t128 -129t177 -47.5q104 0 191 57q5 -6 6 -8l213 -214q22 -22 52.5 -22t52 22t21.5 53t-21 53zM419 236q-100 0 -170.5 71t-70.5 171t70.5 171t170 71
t170 -71t70.5 -171t-70.5 -171t-169.5 -71v0z" />
    <glyph glyph-name="touxiang1" unicode="&#xe639;" 
d="M509 832q-91 0 -174 -36t-143 -96t-95.5 -143t-35.5 -174t35.5 -174t95.5 -143t143 -95.5t174 -35.5t174.5 35.5t143.5 95.5t95.5 143t35.5 174t-35.5 174t-95.5 143t-143.5 96t-174.5 36zM793 99q-18 6 -64.5 19t-77.5 23t-39 14q-10 7 -14 31t-3 45l1 21l16 14
q5 37 11.5 50.5t15 33.5t12.5 33l5 14q16 12 16 32q0 9 -4 17t-8 12l-4 3q6 57 6 97q0 62 -38 95.5t-108 33.5q-74 0 -118.5 -32t-44.5 -97q0 -18 3.5 -42t6.5 -39l3 -16q-16 -12 -16 -32q0 -9 4 -17t8 -12l4 -3q19 -59 32 -81q4 -5 6.5 -18t3.5 -22l1 -10l16 -14
q1 -9 1.5 -23t-3 -40.5t-14.5 -33.5q-8 -5 -41.5 -15t-77.5 -23t-63 -20q-56 56 -88 130t-32 156q0 109 54 201.5t146.5 146.5t201.5 54t202 -54t146.5 -146.5t53.5 -201.5q0 -82 -31 -155.5t-87 -128.5z" />
    <glyph glyph-name="chaxun1" unicode="&#xe638;" 
d="M1021 0l-173 177q56 89 68.5 192.5t-21 203.5t-110.5 177q-88 88 -206.5 119.5t-237 0t-207 -120t-119.5 -207t0 -237t120 -206.5q78 -78 182 -112t210 -18t195 78l171 -175zM222.5 186.5q-64.5 64.5 -87.5 151t0 173t87.5 151t151 87.5t173 0t151 -87.5t87.5 -151
t0 -173t-87.5 -151t-151 -87.5t-173 0t-151 87.5z" />
    <glyph glyph-name="cuowu2" unicode="&#xe63a;" 
d="M512 896q-138 0 -256 -69t-187 -187t-69 -256t69 -256t187 -187t256 -69t256 69t187 187t69 256t-69 256t-187 187t-256 69zM750 230l-84 -84l-154 154l-154 -154l-84 84l154 154l-154 154l84 84l154 -154l154 154l84 -84l-154 -154z" />
    <glyph glyph-name="dengchu" unicode="&#xe633;" 
d="M508 -128q-94 0 -181 37q-41 17 -79 43q-37 25 -69 56.5t-57 68.5q-25 38 -43 79q-36 87 -36 181.5t36 181.5q18 41 43 79q25 37 57 69q14 13 33 13t33 -13.5t14 -33t-14 -32.5q-52 -52 -80 -119q-29 -69 -29 -144.5t29 -144.5q28 -67 80 -118.5t118 -80.5
q70 -29 145.5 -29t144.5 29q67 29 118.5 80.5t79.5 118.5q30 69 30 144.5t-30 144.5q-28 67 -79 119q-14 13 -14 32.5t13.5 33t33 13.5t32.5 -13q32 -32 57 -69q26 -38 43 -79q37 -87 37 -181.5t-37 -181.5q-17 -41 -43 -79q-25 -37 -56.5 -68.5t-68.5 -56.5
q-38 -26 -80 -43q-86 -37 -181 -37v0zM555 384v465q0 20 -13.5 33.5t-33 13.5t-33 -13.5t-13.5 -33.5v-465q0 -19 13.5 -33t33 -14t33 14t13.5 33v0z" />
    <glyph glyph-name="chaxun2" unicode="&#xe644;" 
d="M984 9l-192 193q77 105 77 236q0 109 -53.5 201.5t-146 146t-201.5 53.5t-201.5 -53.5t-146 -146t-53.5 -201.5t53.5 -201t146 -146t201.5 -54q131 0 237 78l192 -193l87 87v0zM468 153q-118 0 -202 83.5t-84 202t84 202t202 83.5t202 -83.5t84 -202t-84 -202t-202 -83.5
v0zM468 153z" />
    <glyph glyph-name="chevron-tiny-left" unicode="&#xe635;" 
d="M576 192l45 46l-146 146l146 147l-45 45l-192 -192z" />
    <glyph glyph-name="chaxun3" unicode="&#xe645;" 
d="M1021 0l-173 177q56 89 68.5 192.5t-21 203.5t-110.5 177q-88 88 -206.5 119.5t-237 0t-207 -120t-119.5 -207t0 -237t120 -206.5q78 -78 182 -112t210 -18t195 78l171 -175zM222.5 186.5q-64.5 64.5 -87.5 151t0 173t87.5 151t151 87.5t173 0t151 -87.5t87.5 -151
t0 -173t-87.5 -151t-151 -87.5t-173 0t-151 87.5z" />
    <glyph glyph-name="chakan1zhuanhuan" unicode="&#xe643;" 
d="M896 461l-55 55l121 120l54 -55zM523 -58q-43 0 -95.5 16.5t-113.5 51.5t-124.5 100.5t-116.5 151.5q49 81 109.5 144t119.5 98.5t113.5 53t101.5 17.5q44 0 86.5 -12t97 -43.5t119.5 -97t135 -160.5q-53 -80 -105.5 -139t-95 -93t-86 -54.5t-76.5 -27t-69 -6.5zM517 510
q-39 0 -82 -12.5t-92.5 -40t-102.5 -79.5t-101 -122q51 -71 107.5 -122.5t106.5 -77.5t90 -37.5t74 -11.5q35 0 75.5 12t91 38t105 79t101.5 126q-87 125 -187.5 186.5t-185.5 61.5zM511.5 102q-66.5 0 -113 46.5t-46.5 113t46.5 113t113 46.5t113 -46.5t46.5 -113
t-46.5 -113t-113 -46.5zM511.5 356q-39.5 0 -67 -27.5t-27.5 -67t27.5 -67t67 -27.5t67 27.5t27.5 67t-27.5 67t-67 27.5zM476 824h77v-195h-77v195zM8 579l54 56l118 -123l-53 -55z" />
    <glyph glyph-name="wodedingdan" unicode="&#xe6f3;" 
d="M775 828q-64 0 -110.5 -46.5t-46.5 -110.5q0 -15 4 -43.5t8.5 -51.5t4.5 -25q2 -10 11.5 -16.5t19.5 -3.5q10 2 16.5 11t3.5 19q0 3 -5 30t-8.5 48t-3.5 32q0 43 31 74.5t75 31.5q46 0 76 -32.5t30 -84.5q0 -53 -13.5 -105t-26 -77.5t-15.5 -25.5q-11 -21 10 -37
q4 -4 14 -4q15 0 24 14q4 5 17.5 32t28.5 85.5t15 117.5q-2 70 -48 119t-112 49zM724 674q-3 0 -12.5 2t-15.5 2v-7q0 -14 7 -55q31 -24 31 -58q0 -31 -20.5 -51.5t-51.5 -20.5t-51 20.5t-20 51.5q0 23 13 41q-1 7 -5.5 35t-4.5 40v14q-137 6 -147 -4l-379 -382
q-18 -18 -18 -42.5t18 -42.5l256 -256q18 -18 43 -18t43 18l378 379q8 8 8 59.5t-4 107.5t-10 106q-5 40 -13.5 48t-44.5 13zM529 305q-6 26 -34 59q-25 25 -48 10q-14 -15 10 -69q21 -41 19 -66.5t-25.5 -49t-54.5 -25t-65 21.5l-34 -34l-31 31l31 30q-36 42 -41 69l48 34
q15 -47 41 -69q13 -13 28 -16.5t23 6.5q10 11 8 25t-15 40q-40 80 0 120q47 47 113 3l30 31l31 -31l-27 -27q27 -32 37 -58z" />
    <glyph glyph-name="huodong2" unicode="&#xe652;" 
d="M872 665h-31q24 41 21 77q-4 44 -46 71q-45 29 -107 14q-50 -13 -104.5 -52.5t-93.5 -91.5q-39 52 -93 91.5t-104 52.5q-63 15 -107 -14q-42 -27 -46 -71q-3 -36 21 -77h-32q-35 0 -60.5 -25.5t-25.5 -60.5v-111q0 -29 17 -51.5t44 -31.5q-5 -14 -5 -29v-333
q0 -36 25 -61.5t61 -25.5h611q36 0 61 25.5t25 61.5v333q0 15 -5 29q27 9 44 31.5t17 51.5v111q0 35 -25.5 60.5t-61.5 25.5zM817 -2h-275v383h275q10 0 17.5 -7t7.5 -18v-333q0 -11 -7.5 -18t-17.5 -7zM576 665q33 38 73 65.5t75 36.5q36 9 58 -5q17 -12 18 -26
q3 -30 -36 -71h-188v0zM897 579v-111q0 -11 -7 -18t-18 -7h-330v161h330q11 0 18 -7.5t7 -17.5zM481 381v-383h-275q-10 0 -17.5 7t-7.5 18v333q0 11 7.5 18t17.5 7h275v0zM222 736q2 14 19 26q21 14 58 5q35 -9 75 -36.5t73 -65.5h-188q-13 13 -25.5 34t-11.5 37zM125 579
q0 10 7.5 17.5t17.5 7.5h331v-161h-331q-10 0 -17.5 7t-7.5 18v111v0zM125 579z" />
    <glyph glyph-name="cuowu3" unicode="&#xe646;" 
d="M512 819q-88 0 -168.5 -34.5t-139 -92.5t-93 -139t-34.5 -169t34.5 -169t93 -139t139 -92.5t168.5 -34.5t169 34.5t139 92.5t92.5 139t34.5 169t-34.5 169t-92.5 139t-139 92.5t-169 34.5v0zM690 250q9 -9 9 -22t-9.5 -22t-22 -9t-21.5 9l-134 134l-134 -132
q-9 -9 -22 -9t-22 9t-9 22t9 22l134 132l-133 134q-9 9 -9 22t9 22t21.5 9t22.5 -9l133 -134l134 133q9 9 22 8.5t22 -9.5t9 -22t-9 -22l-134 -132l134 -134v0zM690 250z" />
    <glyph glyph-name="touxiang2" unicode="&#xe642;" 
d="M512 668q-56 0 -95 -39t-39 -94.5t39 -95t95 -39.5t95 39.5t39 95t-39 94.5t-95 39zM512 896q-139 0 -257 -68.5t-186.5 -186.5t-68.5 -257t68.5 -257t186.5 -186.5t257 -68.5t257 68.5t186.5 186.5t68.5 257t-68.5 257t-186.5 186.5t-257 68.5zM749.5 116
q-10.5 0 -17.5 7.5t-7 17.5q0 87 -62 147t-151 60t-151 -60t-62 -147q0 -10 -7 -17.5t-17.5 -7.5t-18 7.5t-7.5 17.5q0 109 77 184q37 35 85 54q-16 11 -30 24q-54 55 -54 131.5t54.5 130.5t131 54t130.5 -54t54 -131t-54 -131q-14 -13 -30 -24q48 -19 85 -54
q77 -75 77 -184q0 -10 -7.5 -17.5t-18 -7.5z" />
    <glyph glyph-name="view" unicode="&#xe64d;" 
d="M515.5 738q-69.5 0 -133.5 -18.5t-110.5 -49t-86.5 -66.5t-66.5 -72.5t-45 -66.5t-27 -49l-8.5 -19q3 -7 9 -19t26.5 -47.5t45 -68t66 -71.5t87.5 -67.5t110 -48t134 -19.5q231 0 390 199q60 75 87 142q-3 7 -8.5 19.5t-26.5 48t-45.5 67.5t-66 71.5t-87 67.5t-110 47.5
t-134 19.5zM516 193q-85 0 -145 59.5t-60 144.5t60 145t145 60t144.5 -60t59.5 -145t-59.5 -144.5t-144.5 -59.5zM618 397.5q0 -42.5 -30 -72.5t-72.5 -30t-72 30t-29.5 72.5t29.5 72.5t72 30t72.5 -30t30 -72.5z" />
    <glyph glyph-name="xiangmu1" unicode="&#xe63b;" 
d="M985 581l-468 268l-470 -268l469 -268zM47 447v-67l469 -268l469 268v67l-469 -268zM47 246v-67l469 -268l469 268v67l-469 -268z" />
    <glyph glyph-name="tuichudenglu3" unicode="&#xe63c;" 
d="M555 768h-86v-427h86v427zM761 675l-61 -60q52 -42 81.5 -102t29.5 -129q0 -124 -87.5 -211.5t-211.5 -87.5t-211.5 87.5t-87.5 211.5q0 69 29.5 129t80.5 102l-60 60q-63 -53 -99 -129t-36 -162q0 -159 112.5 -271.5t271.5 -112.5t271.5 112.5t112.5 271.5q0 86 -36 162
t-99 129z" />
    <glyph glyph-name="quaner" unicode="&#xe63d;" 
d="M510 751v0v0h-1v0v0v0h-1v0v0v0v0h-1v0v0v0v0h-1v0v0v0v0h-1v0v0v0h-1v0v0v0v0h-1v0v0v0v-1h-1v0v0v0v0h-1v0v0v0h-1v0v0v0v0h-1v0v0v0v0h-1v0v0v0v0h-1v0v0v0v0h-1v0v0v0h-1v0v0v0v0h-1v0v0v0v0h-1v0v0v0h-1v0v0v0v0v0h-1v0v0v0h-1v0v0v0v0h-1v0v0v0v0h-1v0v0v0v0h-1v0
v0v0h-1v0v0v0v0h-1v0v0v0v0h-1v0v0v0v0h-1v0v0v0v0h-1v0v-1v0v0h-1v0v0v0v0h-1v0v0v0v0h-1v0v0v0v0h-1v0v0h-1v0v0v0v0v0h-1v0v0v0h-1v0v0h-1v0v0v0v0h-1v0h-1v0v0v0v0v0h-1v-1h-0.5h-0.5v0h-1v0h-0.5h-0.5v0q-31 -3 -62 -12q-10 -3 -15 -12.5t-2 -20.5q5 -19 25 -19
q4 0 7 2q44 12 89 12q11 0 18.5 8t7.5 18.5t-7.5 18.5t-18.5 8v0v0v0zM326 697q-8 0 -14 -5q-2 0 -4 -2t-3 -2v0l-9 -6v0q-1 -1 -4 -3v0l-1 -1v0v0h-1v0l-3 -3v0h-1v0l-1 -1v0q0 -1 -1 -1v0v0v0v-1h-1v0l-1 -1v0v0v0q-1 0 -1 -1v0v0h-1v0v-1v0h-1v0v-1v0h-1v0v0v0v0v0l-1 -1
v0v0v0v0v0h-1v-1v0v0v0v0h-1v0v0v-1v0v0h-1v0v0v0v0v-1v0h-1v0v0v0v0v-1h-1v0v0v0v0v0v0l-1 -1v0v0v0v0v0h-1v0v-1v0v0v0h-1v0v0v-1v0v0v0h-1v0v0v0v-1v0h-1v0v0v0v-1v0h-1v0v0v0v0v0v-1v0h-1v0v0v0v0v-1h-1v0v0v0q-1 0 -1 -1v0v0v0q-1 0 -1 -0.5v-0.5v0l-1 -1v0v0v0v0
q-15 -14 -28 -29q-8 -8 -7 -19t9 -18t17 -7q12 0 20 10q30 34 68 58q9 6 11.5 16.5t-3.5 19.5q-8 13 -22 13v0v0zM200 551q-17 0 -24 -15q-22 -48 -29 -100q-2 -11 4.5 -19.5t17.5 -10.5h4q9 0 16.5 6.5t9.5 15.5q6 45 25 86q4 10 0.5 20t-13.5 15q-5 2 -11 2v0v0zM173 361
h-4q-11 -2 -17.5 -10.5t-4.5 -19.5l2 -14v0v-0.5v-0.5v0v-0.5v-0.5v0v0v0l1 -1v0v0v0v-1v0v0v0v-1v0v0v0v0v-1v0v0v0v0v-1v0v0v0v-1v0h1v0v0v0v-1v0v0v0v0v-1v0v0v0v0v-1v0v0v0v-1v0v0v0h1v-1v0v0v0v0v-1v0v0v0v0v-1v0v0v0v0v0v-1v0v0v0v-1v0h1v0v0v-1v0v0v0v0v-1v0v0v0v-1
v0v0v0v-1v0h1v0v-1v0v-1v0v0v0v0v-1v0v0v0v0v-1v0h1v0v0v-1v0v0v0v-1v0v0v0v-1v0v0v0l0.5 -0.5l0.5 -0.5v0v-1v0v-0.5v-0.5v0v-1v0v0v0l1 -1v0v0v0v-0.5v-0.5v0v-1v0q0 -1 1 -1v0v-0.5v-0.5v0v-1v0v-1v0v0h1v0v-1v0v0v-1v0v0v-1v0l0.5 -0.5l0.5 -0.5v0v0v0v-0.5v-0.5v0v-1v0
v-0.5v-0.5v0q1 0 1 -1v0v-1v0l0.5 -0.5l0.5 -0.5v0q0 -1 1 -3v0v-0.5v-0.5v0v-1v0q6 -16 13 -33q7 -15 24 -15q6 0 11 3q10 4 13.5 14.5t-0.5 19.5q-19 42 -25 86q-2 10 -9.5 16.5t-16.5 6.5v0v0zM253 186q-10 0 -18 -6q-8 -7 -8.5 -18t6.5 -19v0v0v0v-1v0h1v0v0v0v-1v0v0v0
h1v0q0 -1 1 -1v0v-0.5v-0.5v0h1v0v-1v0l1 -1v0v0v0l1 -1v0v0v0l1 -1v0v0l1 -1v0v0v0v0l1 -1v0v0v0q31 -34 70 -59q6 -4 14 -4q15 0 22 12q6 9 4 20t-12 17q-38 24 -67 58q-8 9 -20 9v0v0zM414 83q-19 0 -25 -19q-3 -11 2 -20.5t16 -12.5h1v0v0v0h0.5h0.5v0v0v0l1 -1v0v0v0v0
h1v0v0v0v0h1v0v0v0v0h1v0v0v0v-1h1v0v0v0v0h1v0v0v0v0v0h1v0v0v0v0h1v-1v0h1v0v0h1v0v0v0q32 -8 64 -10v-1h1v0h2v0v0v0h2v0v0v0h1v0h1v0h1v0v0v0h1v0v0v0v0h1v0v0h1v0h1v0v0v0v0v0h1v0h1v0v0v0v0v0h1v0h1v0v0v0h1v0v0v0v0v0h1v0v0v0h1v0v0v0v0h1v0v0v0v0h1v0v0v0h1v0v0v0v0
v0h1v0v0v0h1v0v0v0v0h1v0v0v0v0h1v0v0v0h1v0v0q11 0 18.5 7.5t7.5 18.5t-7.5 18.5t-18.5 7.5q-45 0 -88 13q-4 1 -8 1v0v0zM695 123q-8 0 -15 -4q-37 -24 -81 -37q-10 -3 -15.5 -12.5t-2.5 -20.5q6 -19 25 -19q4 0 8 1q50 15 95 44q9 6 11 16.5t-3 19.5q-8 12 -22 12v0v0z
M820 269q-17 0 -24 -16q-18 -41 -48 -75q-7 -8 -6 -19t9 -18q7 -6 17 -6q12 0 20 9v0v0v0v0v1h1v0v0v0v0v0v1h1v0v0v0v0v1v0v0h1v0v0v0v1v0v0h1v0v0v1v0v0v0h1v0v0v1v0v0v0v0l1 1v0v0v0v0v0v0l1 1v0v0v1v0h0.5h0.5v0q1 1 1 2v0q13 16 24 33v0v1v0h1v0v0.5v0.5v0v0v0v1v0h1v0
v0v0v1v0v0v0v0l1 1v0v0v0v0v1v0v0v0h1v0v1v0v0v0v0v0v1h1v0v0v0v1v0v0v0v0v0l1 1v0v0v0v0v0v1v0v0v0q1 0 1 0.5v0.5v0v0.5v0.5v0h0.5h0.5v0v0.5v0.5v0l0.5 0.5l0.5 0.5v0q7 13 15 29q4 10 0 20t-13 15q-7 2 -12 2v0v0zM847 459h-3q-11 -2 -17.5 -10.5t-5.5 -19.5
q4 -23 4 -45q0 -23 -4 -45q-1 -11 5.5 -19.5t17.5 -9.5q2 -1 3 -1q10 0 17.5 6.5t8.5 16.5l0.5 3t0.5 5v0h1v0v1v0v0v0v0v1v0v0v0v1v0v0v0v0v0v1v0v0v0v1v0v0v0v0v0v1v0v0q1 11 2 25v0v0v0v2v0v0v0v1v0v1v0v0v0v1v0v1v0v0v0v0v0v1v0v1v0v0v0v1v0v0v0v0v0v1v0v0v0v1v0v0v0v0
v0v1v0v0v0v1v0v0v0v0v0v1v0v0v0v1v0v0v0v0v1v0v0v0v0v1v0v0v0v1v0v0v0v0v0v1v0v0v0v1v0v1v0v0v0v0v0v1v0v0v0v0.5v0.5v0v0v1v0v0v0v0v1v0v1v0v0v0v1v0v1v0v1v0v0v0q-1 12 -2 23v0v0.5v0.5v0v1v0v0.5v0.5v0v0v0v1v0h-1v0v0v0v1v0v0v0v1v0v0v0v0v1v0v0v0v0v1v0v0v0v0v1v0v0v0
v1v0l-1 3q-1 10 -8.5 16.5t-17.5 6.5v0v0zM767 633q-10 0 -17 -6q-8 -7 -9 -18t6 -19q30 -34 49 -75q7 -16 24 -16q6 0 11 3q10 4 13.5 14.5t-0.5 20.5q-3 6 -7 13v0v1v0v0v0l-1 1v0v0v0v0v0v1v0v0v0h-1v1v0v0v0v0v1v0v0v0v0h-1v1v0v0v0v0v0v1v0v0h-1v0v1v0v0v0v0v0v1v0h-1
v0v0v0v1v0v0v0v0v0l-1 1v0v0v0v1v0v0v0v0l-1 1v0v1v0h-0.5h-0.5v0v1v0v0v0.5v0.5v0q-15 26 -35 50v0q0 1 -1 1v0v0.5v0.5v0h-1v0v0v0v0v0v1v0v0h-1v0v0v1v0v0v0h-1v0v1v0v0v0v0h-1v1v0v0v0v0v0v0l-1 1v0v0v0v0v0v1v0h-1v0q-8 9 -20 9v0v0zM605 737q-19 0 -25 -19
q-3 -10 2.5 -19.5t15.5 -12.5q44 -13 82 -37q6 -5 14 -5q14 0 22 12q6 10 3.5 20.5t-11.5 16.5l-1 0.5t-2 1.5v0h-1v0v0v0q0 1 -0.5 1h-0.5v0v0v0h-1v0v0v0v1h-1v0v0v0v0v0h-1v0v1v0v0v0h-1v0v0v0v0v1h-1v0v0v0v0h-1v0v0v0v1h-1v0h-1v0v1v0v0v0h-1v0v0v0v0v0l-1 1v0h-1v0
l-0.5 0.5l-0.5 0.5v0q-37 21 -78 33q-4 1 -8 1v0v0zM605 737z" />
    <glyph glyph-name="cuowu4" unicode="&#xe647;" 
d="M512 896q-138 0 -256 -69t-187 -187t-69 -256t69 -256t187 -187t256 -69t256 69t187 187t69 256t-69 256t-187 187t-256 69zM593 751l-21 -486q0 -22 -16.5 -37t-39.5 -15h-13q-22 0 -37 14.5t-18 37.5l-21 486q0 22 13.5 36.5t33.5 14.5h68q23 0 38.5 -14.5t12.5 -36.5z
M572 -17q-26 -26 -60 -26t-59.5 26t-25.5 60t25.5 59.5t59.5 25.5q38 0 64 -25.5t26 -59.5q-8 -43 -30 -60z" />
    <glyph glyph-name="zongxiangmu" unicode="&#xe63e;" 
d="M957 553l-437 301l-437 -301l437 -301l437 301v0zM520 185l-385 256l-52 -53l437 -301l437 301l-52 54l-385 -257v0zM520 20l-385 255l-52 -53l437 -301l437 301l-52 54l-385 -256v0zM520 20z" />
    <glyph glyph-name="cuowu5" unicode="&#xe648;" horiz-adv-x="1026" 
d="M509.5 879q-101.5 0 -194 -39.5t-159.5 -106.5t-107 -160t-40 -194.5t40 -194t107 -159.5t159.5 -107t194 -40t194 40t160 107t107 159.5t39.5 194t-39.5 194.5t-107 160t-160 106.5t-194 39.5zM760 199l-70 -70l-180 180l-181 -180l-70 70l181 180l-181 180l70 70
l181 -180l180 180l70 -70l-180 -180z" />
    <glyph glyph-name="kehu" unicode="&#xe63f;" 
d="M461 576q-41 0 -69.5 -30.5t-28.5 -73.5t28.5 -73t69.5 -30t69.5 30t28.5 73t-28.5 73.5t-69.5 30.5zM512 768q-104 0 -192.5 -51.5t-140 -140t-51.5 -192.5t51.5 -192.5t140 -140t192.5 -51.5t192.5 51.5t140 140t51.5 192.5t-51.5 192.5t-140 140t-192.5 51.5zM628 152
q0 73 -49 124.5t-118 51.5t-118 -51.5t-49 -124.5h-38q0 67 36 121.5t93 79.5q-28 19 -44.5 50.5t-16.5 68.5q0 60 40 102t97 42t96.5 -42t39.5 -102q0 -36 -16 -68t-44 -51q57 -25 93 -79.5t36 -121.5h-38zM768 188v0v0h-39q0 58 -33 99t-85 47v0q-9 1 -15.5 7.5t-6.5 15.5
t6 16t15 7v0q26 5 43.5 27t17.5 50q0 26 -14 46t-36 28h-1q-2 1 -3 1q-7 2 -12 7.5t-5 13.5t6 14t14 6h0.5h0.5h2q38 -9 63 -42t25 -75q0 -31 -14 -57t-37 -43q48 -20 78 -65.5t30 -102.5v0z" />
    <glyph glyph-name="quanquan2" unicode="&#xe641;" 
d="M510.5 687q-125.5 0 -214.5 -88.5t-89 -214.5t89 -214.5t214.5 -88.5t214 88.5t88.5 214.5t-88.5 214.5t-214 88.5zM510 176q-86 0 -147 61t-61 147t61 147t147 61t147 -61t61 -147t-61 -147t-147 -61z" />
    <glyph glyph-name="tongzhi1" unicode="&#xe653;" 
d="M208 235q34 -38 86 -72q38 -30 51 -39q4 -8 0 -21q-17 -56 -26 -68q-8 -26 9 -34q17 -5 38 4q11 5 28.5 14.5t58 36.5t62.5 51q7 0 17.5 1t42 5.5t59.5 11.5t62 21.5t58 33.5q5 3 13.5 9.5t31 27.5t40.5 44t34.5 59t21.5 73q1 6 2 17t-1.5 42t-9.5 60.5t-26.5 66.5
t-49.5 66l-11.5 11.5t-35 27.5t-59 36t-84 30.5t-109.5 18.5q-7 0 -19 -1t-47 -6t-66.5 -14.5t-70 -29.5t-66.5 -48q-4 -2 -11 -7.5t-25.5 -26t-33 -44.5t-28 -64t-17.5 -84v0q-3 -92 46 -167q15 -23 35 -42zM345 530h345q10 0 16 -6t6 -15.5t-6 -15.5t-16 -6h-345
q-10 0 -15.5 6t-5.5 15.5t5.5 15.5t15.5 6v0zM387 402h214q9 0 15 -6t6 -15.5t-6 -15.5t-15 -6h-214q-9 0 -15 6t-6 15t7 15.5t14 6.5v0z" />
    <glyph glyph-name="tongzhi2" unicode="&#xe654;" 
d="M557 781l-237 -141v-448l237 -141q33 -19 58 -6t25 51v640q0 39 -25 53.5t-58 -8.5zM64 544v-256q0 -38 29 -67t67 -29h96v448h-96q-38 0 -67 -29t-29 -67zM928 448h-128q-14 0 -23 -9t-9 -23t9 -23t23 -9h128q14 0 23 9t9 23t-9 23t-23 9zM909 122l-109 64
q-27 13 -45 -13q-13 -27 13 -45l109 -64q27 -14 45 13q5 9 0.5 24.5t-13.5 20.5zM794 646l108 64q10 5 14 18t-1 27q-5 10 -17 14t-21 -1l-109 -64q-10 -5 -13.5 -17.5t0.5 -27.5q5 -9 17 -13t22 0z" />
    <glyph glyph-name="mili_tongzhi" unicode="&#xe66d;" 
d="M378 450q24 -18 46 -36.5t33 -29.5t23.5 -20t17 -13t14.5 -3.5t14.5 4.5t18.5 13.5t25.5 21t35.5 31t49 39.5q79 59 212 166q-30 34 -74 34h-562q-42 0 -72 -32q132 -109 219 -175v0v0zM678 401q-29 -23 -57 -45.5t-41.5 -36t-29 -24.5t-21 -15.5t-17.5 -4.5t-17.5 4.5
t-21 15.5t-29 24.5t-41.5 36.5t-57 45q-214 163 -215 164q-2 -10 -2 -17v-328q0 -46 30 -78t72 -32h562q42 0 72 32t30 78v328q0 6 -1 17q-22 -16 -216 -164v0v0z" />
    <glyph glyph-name="tongzhi3" unicode="&#xe674;" 
d="M511 804q-114 0 -210.5 -48t-152.5 -131t-56 -180q0 -75 36 -144t103 -121l103 -79q-6 -31 -31 -94q-8 -19 7 -33q8 -8 20 -8q7 0 13 2q111 50 175 118q112 2 207 50t150 130.5t55 178.5q0 97 -56 180t-152.5 131t-210.5 48v0zM509 137h-3q-6 -1 -13.5 -6t-12.5 -9l-4 -5
q-55 -55 -101 -81q20 67 8 85q-2 3 -4 5v0h-2q0 1 -1 1q-83 44 -146 105q-43 45 -66 102t-23 113q0 83 49.5 154t135 112.5t185.5 41.5t185.5 -41.5t135 -112.5t49.5 -154.5t-50 -155t-135.5 -113t-186.5 -41.5v0zM689 532h-356q-13 0 -22 -9.5t-9 -22.5t9 -22t22 -9h356
q14 0 23 9t9 22t-9 22.5t-23 9.5v0zM689 532zM648 385h-273q-13 0 -22 -9t-9 -22t9 -22.5t22 -9.5h273q13 0 22 9.5t9 22.5t-9 22t-22 9v0zM648 385z" />
  </font>
</defs>
</svg>
